<svg width="311" height="295" viewBox="0 0 311 295" fill="none" xmlns="http://www.w3.org/2000/svg">
<path d="M294.795 271.46H309.855" stroke="#263238" stroke-width="0.694822" stroke-linecap="round" stroke-linejoin="round"/>
<path d="M176.012 271.46H192.725" stroke="#263238" stroke-width="0.694822" stroke-linecap="round" stroke-linejoin="round"/>
<path d="M44.7455 271.46H100.854" stroke="#263238" stroke-width="0.694822" stroke-linecap="round" stroke-linejoin="round"/>
<path d="M22.9633 271.46H35.6633" stroke="#263238" stroke-width="0.694822" stroke-linecap="round" stroke-linejoin="round"/>
<path d="M80.4635 97.275C80.4635 97.275 81.3941 103.426 76.2574 106.033C76.2574 106.033 82.4586 107.378 83.0318 113.46C83.0318 113.46 83.1509 105.149 86.7093 104.144C86.7093 104.144 81.8928 104.068 80.4635 97.275Z" fill="white"/>
<path d="M154.244 98.0458C154.244 98.0458 153.954 101.824 150.522 102.632C150.522 102.632 154.006 104.31 153.5 107.99C153.5 107.99 154.713 103.086 156.962 102.995C156.999 102.995 154.155 102.262 154.244 98.0458Z" fill="white"/>
<path d="M158.362 85.2004C158.362 85.2004 158.064 88.9785 154.64 89.787C154.64 89.787 158.116 91.4645 157.618 95.1444C157.618 95.1444 158.831 90.2404 161.079 90.1497C161.087 90.1497 158.243 89.4168 158.362 85.2004Z" fill="white"/>
<path d="M71.3959 85.4727C71.3959 85.4727 71.1354 91.0945 67.7259 92.8248C69.201 93.2761 70.5134 94.1566 71.5005 95.3573C72.4876 96.558 73.1061 98.0262 73.2794 99.5801C73.2794 99.5801 72.5349 93.2858 76.3762 91.9559C75.1436 91.2915 74.0629 90.3706 73.2048 89.2535C72.3466 88.1363 71.7302 86.848 71.3959 85.4727Z" fill="white"/>
<path d="M242.394 288.387C269.434 288.387 291.355 283.404 291.355 277.256C291.355 271.109 269.434 266.126 242.394 266.126C215.353 266.126 193.432 271.109 193.432 277.256C193.432 283.404 215.353 288.387 242.394 288.387Z" fill="white" stroke="#263238" stroke-width="0.694822" stroke-linecap="round" stroke-linejoin="round"/>
<path d="M242.669 284.132C266.367 284.132 285.578 280.133 285.578 275.201C285.578 270.268 266.367 266.269 242.669 266.269C218.971 266.269 199.76 270.268 199.76 275.201C199.76 280.133 218.971 284.132 242.669 284.132Z" stroke="#263238" stroke-width="0.694822" stroke-linecap="round" stroke-linejoin="round"/>
<path d="M213.547 263.315C211.614 262.369 209.409 262.165 207.339 262.741C206.316 263.045 205.393 263.621 204.665 264.411C203.937 265.2 203.431 266.174 203.2 267.229C203.075 268.244 203.183 269.274 203.517 270.239C203.85 271.204 204.399 272.077 205.12 272.79C206.578 274.205 208.306 275.3 210.197 276.009C215.33 278.196 220.845 279.309 226.411 279.281C231.079 279.281 235.746 278.435 240.392 278.903C244.858 279.342 249.087 280.959 253.494 281.684C257.996 282.424 262.598 282.236 267.028 281.132C271.598 279.991 276.467 277.181 277.264 272.473C277.472 270.846 277.221 269.193 276.54 267.705C275.858 266.218 274.775 264.957 273.415 264.071C272.038 263.215 270.495 262.674 268.892 262.487C267.288 262.299 265.664 262.468 264.132 262.982C264.943 262.726 263.752 255.426 263.544 254.444C262.055 247.643 254.141 242.83 247.561 243.193C243.139 243.435 238.724 246.48 237.794 250.87C236.305 250.016 234.168 250.341 232.657 251.187C231.906 251.624 231.273 252.243 230.817 252.99C230.361 253.737 230.095 254.587 230.044 255.464C227.133 252.774 222.6 252.147 218.877 253.371C217.282 253.818 215.89 254.814 214.939 256.189C214.365 257.22 213.967 258.341 213.763 259.507C213.488 260.746 213.83 262.091 213.547 263.315Z" fill="#92E3A9"/>
<path d="M213.242 263.451C211.309 262.503 209.102 262.301 207.033 262.884C206.011 263.188 205.087 263.765 204.359 264.554C203.631 265.344 203.125 266.317 202.894 267.373C202.771 268.387 202.881 269.416 203.215 270.379C203.55 271.343 204.1 272.215 204.822 272.926C206.275 274.344 208.001 275.443 209.892 276.153C215.026 278.336 220.539 279.448 226.105 279.425C230.773 279.425 235.448 278.571 240.093 279.039C244.56 279.485 248.781 281.095 253.188 281.828C257.693 282.568 262.298 282.38 266.729 281.276C271.3 280.127 276.169 277.324 276.958 272.609C277.167 270.984 276.918 269.332 276.238 267.846C275.557 266.359 274.475 265.1 273.117 264.214C271.738 263.36 270.194 262.821 268.59 262.631C266.986 262.442 265.361 262.608 263.826 263.118C264.637 262.862 263.454 255.562 263.238 254.58C261.749 247.779 253.836 242.974 247.255 243.329C242.833 243.571 238.418 246.616 237.488 251.006C235.999 250.16 233.862 250.477 232.359 251.331C231.606 251.766 230.972 252.386 230.515 253.132C230.057 253.879 229.79 254.73 229.738 255.608C226.828 252.91 222.331 252.29 218.572 253.507C216.979 253.959 215.588 254.955 214.634 256.325C214.062 257.36 213.665 258.483 213.457 259.65C213.182 260.882 213.524 262.219 213.242 263.451Z" stroke="#263238" stroke-width="0.694822" stroke-linecap="round" stroke-linejoin="round"/>
<path opacity="0.19" d="M213.562 263.496C211.631 262.549 209.427 262.347 207.361 262.93C206.339 263.233 205.416 263.809 204.689 264.597C203.961 265.385 203.454 266.356 203.221 267.41C203.097 268.425 203.205 269.455 203.538 270.42C203.872 271.385 204.421 272.258 205.142 272.972C206.6 274.386 208.328 275.482 210.219 276.191C215.352 278.376 220.866 279.492 226.433 279.47C231.101 279.47 235.768 278.616 240.413 279.085C244.88 279.531 249.109 281.14 253.516 281.873C258.018 282.614 262.621 282.424 267.049 281.314C271.62 280.173 276.489 277.362 277.285 272.654C277.494 271.029 277.243 269.376 276.562 267.89C275.88 266.403 274.796 265.144 273.437 264.259C272.061 263.403 270.518 262.861 268.914 262.672C267.311 262.482 265.686 262.65 264.154 263.164C264.965 262.907 263.774 255.608 263.558 254.625C262.069 247.825 254.163 243.019 247.575 243.374C243.16 243.616 238.746 246.661 237.815 251.051C236.327 250.205 234.19 250.522 232.679 251.376C231.929 251.812 231.297 252.43 230.841 253.176C230.385 253.921 230.118 254.77 230.066 255.645C227.155 252.955 222.659 252.336 218.899 253.552C217.31 254.007 215.922 255.002 214.969 256.371C214.393 257.403 213.995 258.527 213.792 259.696C213.51 260.927 213.852 262.265 213.562 263.496Z" fill="white"/>
<path opacity="0.2" d="M260.997 249.835C257.521 246.639 251.766 247.115 248.007 249.956C244.247 252.797 242.208 257.474 241.344 262.151C240.578 261.661 239.692 261.397 238.786 261.389C237.88 261.381 236.989 261.629 236.215 262.106C234.676 263.09 233.483 264.541 232.805 266.254C231.471 265.284 229.874 264.757 228.233 264.746C226.592 264.735 224.987 265.241 223.641 266.194C222.717 266.964 221.833 267.781 220.991 268.642C218.486 270.893 215.22 272.071 211.878 271.93C208.536 271.79 205.377 270.34 203.065 267.887C203.065 267.887 200.407 271.718 210.614 276.062C220.82 280.407 227.453 279.84 232.947 279.145C238.441 278.45 245.364 279.704 250.195 281.412C255.027 283.12 269.104 283.233 274.069 277.77C279.035 272.307 278.484 261.66 264.131 262.658C264.161 262.612 264.325 252.888 260.997 249.835Z" fill="black"/>
<path d="M232.39 240.851C230.372 239.914 229.412 237.382 229.724 235.146C230.037 232.909 231.213 230.929 232.553 229.101C233.893 227.272 235.33 225.534 236.179 223.449C239.477 215.288 232.375 205.639 235.539 197.425" stroke="#263238" stroke-width="0.694822" stroke-linecap="round" stroke-linejoin="round"/>
<path d="M261.273 240.223C259.375 239.634 258.295 237.594 257.916 235.614C256.791 229.403 261.005 223.524 261.913 217.305C262.658 212.129 261.117 206.915 259.583 201.913" stroke="#263238" stroke-width="0.694822" stroke-linecap="round" stroke-linejoin="round"/>
<path d="M247.255 238.379C245.238 236.453 245.461 233.09 246.511 230.506C247.561 227.922 249.377 225.64 250.121 222.95C250.548 221.347 250.597 219.666 250.265 218.041C249.932 216.416 249.228 214.893 248.208 213.595" stroke="#263238" stroke-width="0.694822" stroke-linecap="round" stroke-linejoin="round"/>
<path d="M229.44 203.5C229.264 206.345 229.439 209.201 229.962 212.001" stroke="#263238" stroke-width="0.694822" stroke-linecap="round" stroke-linejoin="round"/>
<path d="M229.59 220.872C229.85 223.69 228.012 226.199 226.545 228.609C224.827 231.327 223.665 234.366 223.128 237.548C222.589 240.748 223.096 244.039 224.572 246.918" stroke="#263238" stroke-width="0.694822" stroke-linecap="round" stroke-linejoin="round"/>
<path d="M129.583 107.007L130.327 116.249V116.468C129.702 116.393 129.073 116.355 128.444 116.354C123.501 116.354 115.788 118.002 110.317 119.377C106.476 120.344 103.706 121.175 103.706 121.175L102.88 117.843L99.7459 105.39C97.2073 103.176 93.3363 94.4793 93.3363 94.4793C90.1873 93.9882 86.2716 91.0866 85.4229 87.0289C84.5743 82.9712 89.495 83.3717 89.495 83.3717L92.6812 81.3844L96.6713 70.3297C96.6713 70.3297 93.165 62.101 100.066 58.7914C106.967 55.4818 130.432 67.0126 130.432 67.0126L132.97 77.8255C136.231 79.1705 132.784 87.2707 132.784 87.2707C132.784 87.2707 133.097 87.3992 133.454 92.1822C133.811 96.9653 129.583 107.007 129.583 107.007Z" fill="white"/>
<path d="M121.743 81.3241C122.786 85.344 126.456 88.2078 126.322 89.243C126.151 90.5729 124.535 92.3712 123.069 92.3939" stroke="#263238" stroke-width="0.694822" stroke-linecap="round" stroke-linejoin="round"/>
<path d="M128.972 74.8557C128.972 74.8557 125.748 72.1884 123.254 75.6113" stroke="#263238" stroke-width="1.38964" stroke-linecap="round" stroke-linejoin="round"/>
<path d="M110.488 95.1674C110.488 95.1674 112.126 99.5046 118.677 99.361" stroke="#263238" stroke-width="0.694822" stroke-linecap="round" stroke-linejoin="round"/>
<path d="M114.679 78.2636C112.327 76.7901 109.066 76.9186 107.339 80.1753" stroke="#263238" stroke-width="1.38964" stroke-linecap="round" stroke-linejoin="round"/>
<path d="M114.329 84.596C114.545 85.7747 114.225 86.8628 113.584 86.9459C112.944 87.0291 112.274 86.1903 112.051 85.0342C111.828 83.8781 112.163 82.8052 112.795 82.6918C113.428 82.5785 114.106 83.4248 114.329 84.596Z" fill="#263238"/>
<path d="M127.751 81.9663C127.967 83.145 127.647 84.2331 127.006 84.3162C126.366 84.3994 125.696 83.5606 125.473 82.4045C125.25 81.2484 125.585 80.1754 126.217 80.0545C126.85 79.9336 127.527 80.7724 127.751 81.9663Z" fill="#263238"/>
<path d="M93.0303 86.2732C93.0303 86.2732 87.581 81.4674 85.8539 84.7619C84.1268 88.0564 89.7324 95.7033 94.9956 93.3684" stroke="#263238" stroke-width="0.694822" stroke-linecap="round" stroke-linejoin="round"/>
<path d="M129.679 68.2894C129.679 68.2894 130.096 82.1399 131.607 85.2228C133.118 88.3058 134.414 89.8397 132.821 97.8795C131.227 105.919 125.153 115.312 118.676 115.939C112.2 116.566 97.3184 106.546 93.1049 94.056" stroke="#263238" stroke-width="0.694822" stroke-linecap="round" stroke-linejoin="round"/>
<path d="M93.1794 86.8403C93.1794 86.8403 97.1323 84.7624 96.4177 81.1656C95.703 77.5689 96.2018 77.1231 99.0381 75.2718C101.874 73.4205 100.118 69.5971 97.4003 65.8341C94.6831 62.0711 99.8495 57.5677 104.056 59.4567C108.262 61.3458 132.233 70.9194 138.672 68.0783C145.111 65.2372 143.265 56.1546 134.592 51.0769C134.592 51.0769 129.91 45.4022 131.168 40.1809C132.426 34.9595 102.396 19.1898 88.3182 51.3036C88.3182 51.3036 81.6183 53.9558 80.2411 63.0837C78.8713 72.068 88.5564 83.6894 88.5564 83.6894C88.5564 83.6894 91.9808 85.4802 93.1794 86.8403Z" fill="#263238"/>
<path d="M97.2292 57.8236C99.4626 54.8011 103.527 53.7206 107.182 54.2495C110.838 54.7785 114.158 56.6751 117.277 58.6775C120.396 60.6798 123.463 62.8711 126.955 64.1104C128.916 64.9113 131.071 65.0879 133.133 64.6166C133.938 64.3998 134.689 64.0141 135.338 63.4843C135.987 62.9546 136.519 62.2927 136.9 61.5413" stroke="white" stroke-width="0.694822" stroke-linecap="round" stroke-linejoin="round"/>
<path d="M90.9828 55.3835C88.3028 55.5649 85.9653 57.6051 84.9231 60.1213C83.9724 62.6933 83.9068 65.5161 84.737 68.1308C85.2857 69.9726 86.0347 71.7467 86.9703 73.4202" stroke="white" stroke-width="0.694822" stroke-linecap="round" stroke-linejoin="round"/>
<path d="M130.111 105.768C129.719 107.319 129.593 108.927 129.738 110.521C129.821 112.394 130.028 114.26 130.356 116.105" stroke="#263238" stroke-width="0.694822" stroke-linecap="round" stroke-linejoin="round"/>
<path d="M99.7159 104.847C101.004 109.471 102.433 115.04 103.751 121.236" stroke="#263238" stroke-width="0.694822" stroke-linecap="round" stroke-linejoin="round"/>
<path d="M130.512 80.2734C130.512 80.2734 131.733 76.9033 134.041 78.3995C136.349 79.8956 132.671 87.4669 132.671 87.4669" stroke="#263238" stroke-width="0.694822" stroke-linecap="round" stroke-linejoin="round"/>
<path d="M133.886 65.9619C133.886 65.9619 135.04 75.4903 132.24 78.4976L130.097 79.1701L128.965 66.5135L133.886 65.9619Z" fill="#263238"/>
<path d="M78.8412 54.0082C78.8412 54.0082 71.2927 53.4717 63.9972 44.6612C56.7017 35.8506 62.5976 29.6621 66.2305 26.3525C69.8633 23.0429 78.8264 13.9679 82.5709 9.72891C86.3154 5.48989 93.8193 0.124991 102.298 1.53044C110.778 2.93589 119.033 8.14966 127.096 10.5525C135.158 12.9554 143.19 21.8868 144.374 27.7126C145.558 33.5384 143.012 42.6739 140.056 44.8727L134.972 44.714L137.205 52.5347C137.205 52.5347 106.996 40.407 80.01 63.1738L82.2954 55.0282L78.8412 54.0082Z" fill="white"/>
<path d="M92.7257 43.6034C92.7257 47.0868 92.7779 50.5702 92.9937 54.0385L80.45 63.4988L83.5171 48.1598L92.7257 43.6034Z" fill="#92E3A9"/>
<path opacity="0.6" d="M92.7256 43.6034C92.7256 47.0868 92.8819 50.9556 93.0904 54.4239L80.4349 63.4913L83.502 48.1522L92.7256 43.6034Z" fill="white"/>
<path d="M94.2138 1.77225C94.8199 1.58198 95.4685 1.58111 96.0752 1.76976C96.6819 1.9584 97.2186 2.32785 97.6158 2.83012C98.3906 3.85107 98.786 5.1166 98.7325 6.40419C98.6953 10.5979 95.6207 14.1493 92.2484 16.5824C88.8761 19.0155 85.02 20.7836 82.0571 23.7154C80.3679 25.3867 79.0255 27.3842 78.1089 29.5904C77.1922 31.7965 76.72 34.1666 76.72 36.5609C76.72 38.9552 77.1922 41.3253 78.1089 43.5315C79.0255 45.7376 80.3679 47.7352 82.0571 49.4065C82.3921 49.7314 82.7345 50.0412 83.0621 50.3812L82.0273 54.6731C82.0273 54.6731 68.6275 52.8974 64.0269 44.6612C59.4262 36.4249 60.8779 32.5713 64.8904 27.7353C68.9029 22.8994 74.114 20.2698 79.2208 12.8874C84.3276 5.50501 94.2138 1.77225 94.2138 1.77225Z" fill="#92E3A9"/>
<path opacity="0.6" d="M94.2138 1.77225C94.8199 1.58198 95.4685 1.58111 96.0752 1.76976C96.6819 1.9584 97.2186 2.32785 97.6158 2.83012C98.3906 3.85107 98.786 5.1166 98.7325 6.40419C98.6953 10.5979 95.6207 14.1493 92.2484 16.5824C88.8761 19.0155 85.02 20.7836 82.0571 23.7154C80.3679 25.3867 79.0255 27.3842 78.1089 29.5904C77.1922 31.7965 76.72 34.1666 76.72 36.5609C76.72 38.9552 77.1922 41.3253 78.1089 43.5315C79.0255 45.7376 80.3679 47.7352 82.0571 49.4065C82.3921 49.7314 82.7345 50.0412 83.0621 50.3812L82.0273 54.6731C82.0273 54.6731 68.6275 52.8974 64.0269 44.6612C59.4262 36.4249 60.8779 32.5713 64.8904 27.7353C68.9029 22.8994 74.114 20.2698 79.2208 12.8874C84.3276 5.50501 94.2138 1.77225 94.2138 1.77225Z" fill="white"/>
<path d="M80.45 63.4985C80.45 63.4985 101.22 41.646 137.176 52.9198L132.754 40.5352C132.754 40.5352 107.741 33.6062 83.5171 48.1594L80.45 63.4985Z" stroke="#263238" stroke-width="0.694822" stroke-linecap="round" stroke-linejoin="round"/>
<path d="M135.142 47.2078C137.696 46.7922 142.676 43.9133 143.808 41.5482C144.843 39.1237 145.305 36.4866 145.155 33.8484C145.178 30.0905 144.318 26.3813 142.646 23.028C138.798 15.7967 130.676 12.2528 123.15 9.22281L109.065 3.54812C106.214 2.39958 103.303 1.23592 100.243 1.03191C94.1761 0.631429 88.4439 4.05438 84.0071 8.2934C79.5703 12.5324 76.0044 17.6253 71.5006 21.7812C69.3045 23.8062 66.8925 25.5593 64.8602 27.8261C62.8279 30.093 61.138 32.7074 60.8477 35.7072C60.4159 40.0218 62.9172 44.1248 65.9918 47.1398C69.0663 50.1547 72.0664 53.6381 81.9376 54.8244" stroke="#263238" stroke-width="0.694822" stroke-linecap="round" stroke-linejoin="round"/>
<path d="M120.321 38.8956C122.37 37.6655 124.165 36.0438 125.606 34.1201" stroke="#263238" stroke-width="0.694822" stroke-linecap="round" stroke-linejoin="round"/>
<path d="M90.4251 44.4121C88.6403 43.7837 87.01 42.7719 85.6456 41.4457C84.2812 40.1195 83.2148 38.5101 82.5191 36.7274" stroke="#263238" stroke-width="0.694822" stroke-linecap="round" stroke-linejoin="round"/>
<path d="M93.0376 7.71125C89.7025 7.46945 86.7843 9.9781 84.6478 12.5623C82.5113 15.1465 80.6055 18.1841 77.6203 19.718" stroke="#263238" stroke-width="0.694822" stroke-linecap="round" stroke-linejoin="round"/>
<path d="M213.332 156.47L182.601 180.816C182.601 180.816 170.802 141.796 170.11 136.937C168.219 132.26 161.363 125.724 161.363 125.724C161.363 125.724 136.163 124.462 134.347 123.404C132.531 122.346 132.33 116.233 132.33 116.233C131.675 116.233 130.99 116.233 130.297 116.233C129.605 116.233 129.062 116.294 128.429 116.339C122.39 116.919 116.412 118.029 110.562 119.656C105.776 120.926 102.426 122.059 102.426 122.059L104.287 130.265L102.939 132.321C98.5248 135.668 74.3381 143.806 68.0773 146.677C65.3363 148.877 62.7075 151.218 60.2012 153.689C60.2012 153.689 38.5083 196.896 35.1435 202.17C33.096 205.476 31.9858 209.29 31.935 213.194C34.4288 218.597 38.0915 218.952 41.8657 220.275C42.4997 220.491 43.121 220.743 43.7268 221.03C48.1413 223.131 87.0679 220.002 87.0679 220.002C87.0679 220.002 84.2688 234.072 97.0285 228.722C117.448 220.154 166.261 226.085 166.261 226.085L165.092 194.349L176.155 207.195C176.155 207.195 181.328 210.285 187.552 206.341C197.014 200.137 224.446 165.87 224.446 165.87C221.796 159.515 213.332 156.47 213.332 156.47ZM90.0531 205.948L87.8198 203.681C83.9636 201.308 69.5811 198.558 69.5811 198.558L79.7054 183.71C79.7054 183.71 90.3881 200.485 90.872 201.905C91.3559 203.326 90.0531 205.948 90.0531 205.948Z" fill="white"/>
<path d="M111.351 239.807L113.644 289.958C113.644 289.958 106.14 288.053 104.056 284.88C101.971 281.706 97.3184 234.17 97.3184 234.17C97.3184 234.17 101.785 238.326 111.351 239.807Z" fill="#92E3A9"/>
<path opacity="0.56" d="M111.351 239.807L113.644 289.958C113.644 289.958 106.14 288.053 104.056 284.88C101.971 281.706 97.3184 234.17 97.3184 234.17C97.3184 234.17 101.785 238.326 111.351 239.807Z" fill="white"/>
<path d="M91.1844 202.737L79.4521 184.194L89.2712 171.008C89.2712 171.008 90.0156 178.466 94.3706 181.927C101.346 187.45 99.8124 204.429 99.8124 204.429L91.1844 202.737Z" fill="#92E3A9"/>
<path opacity="0.6" d="M91.1844 202.737L79.4521 184.194L89.2712 171.008C89.2712 171.008 90.0156 178.466 94.3706 181.927C101.346 187.45 99.8124 204.429 99.8124 204.429L91.1844 202.737Z" fill="white"/>
<path d="M162.53 154.43C162.53 154.43 171.047 192.883 175.982 199.011C180.918 205.139 181.022 181.247 182.764 180.914C184.506 180.582 187.417 194.916 186.293 199.246C186.293 199.246 186.963 201.512 189.434 199.246C191.906 196.979 222.614 168.107 222.614 168.107C222.614 168.107 191.057 208.63 182.035 208.381C174.404 209.454 166.163 195.611 166.163 195.611L162.53 154.43Z" fill="#92E3A9"/>
<path opacity="0.6" d="M162.53 154.43C162.53 154.43 171.047 192.883 175.982 199.011C180.918 205.139 181.022 181.247 182.764 180.914C184.506 180.582 187.417 194.916 186.293 199.246C186.293 199.246 186.963 201.512 189.434 199.246C191.906 196.979 222.614 168.107 222.614 168.107C222.614 168.107 191.057 208.63 182.035 208.381C174.404 209.454 166.163 195.611 166.163 195.611L162.53 154.43Z" fill="white"/>
<path d="M71.1072 196.178L69.2163 198.747C69.2163 198.747 54.0819 196.82 41.8657 220.244C38.0915 218.922 34.4214 218.567 31.935 213.164C31.9858 209.26 33.096 205.445 35.1435 202.14C38.5083 196.85 60.4543 153.168 60.4543 153.168C62.7038 150.668 65.2666 148.478 68.0774 146.655C83.7105 138.267 98.5248 135.653 102.939 132.298L104.287 130.243L102.426 122.037C102.426 122.037 105.776 120.903 110.562 119.634L113.034 130.341C113.441 132.112 113.205 133.972 112.369 135.581C111.534 137.19 110.155 138.439 108.485 139.099L72.7524 153.085C70.4461 153.984 68.5586 155.732 67.4669 157.981L47.9031 198.09C48.2977 197.735 56.077 189.702 71.1072 196.178Z" fill="#92E3A9"/>
<path opacity="0.6" d="M71.1072 196.178L69.2163 198.747C69.2163 198.747 54.0819 196.82 41.8657 220.244C38.0915 218.922 34.4214 218.567 31.935 213.164C31.9858 209.26 33.096 205.445 35.1435 202.14C38.5083 196.85 60.4543 153.168 60.4543 153.168C60.4543 153.168 65.1443 148.854 68.0774 146.655C82.8991 138.902 98.5248 135.653 102.939 132.298L104.287 130.243L102.426 122.037C102.426 122.037 105.776 120.903 110.562 119.634L113.034 130.341C113.441 132.112 113.205 133.972 112.369 135.581C111.534 137.19 110.155 138.439 108.485 139.099L72.7524 153.085C70.4461 153.984 68.5586 155.732 67.4669 157.981L47.9031 198.09C48.2977 197.735 56.077 189.702 71.1072 196.178Z" fill="white"/>
<path d="M216.428 154.543L225.852 141.025C225.852 141.025 232.507 136.491 234.919 135.313C237.331 134.134 237.681 131.814 238.828 132.63C239.974 133.446 238.939 138.229 236.527 139.741C234.115 141.252 231.361 142.763 231.703 143.821C232.046 144.879 246.064 143.587 246.064 143.587C246.064 143.587 263.93 143.345 264.191 144.75C264.451 146.156 253.069 148.249 253.069 148.249C253.069 148.249 265.3 148.113 265.33 148.823C265.359 149.533 258.354 151.982 258.354 151.982C258.354 151.982 263.305 152.246 263.067 153.334C262.828 154.422 257.781 155.828 257.781 155.828C257.781 155.828 247.441 162.243 245.126 163.293C242.81 164.344 227.095 162.356 227.095 162.356L224.408 165.885C224.408 165.885 219.859 159.326 215.036 156.53L216.428 154.543Z" fill="white"/>
<path d="M181.737 196.125C182.393 191.128 182.712 186.091 182.69 181.05" stroke="#263238" stroke-width="0.694822" stroke-linecap="round" stroke-linejoin="round"/>
<path d="M130.341 116.309C131.086 116.309 131.882 116.264 132.671 116.256L133.416 121.13C133.535 121.912 133.924 122.626 134.515 123.143C135.106 123.659 135.859 123.945 136.639 123.949L160.871 125.618C162.65 125.618 169.402 134.996 170.548 138.532L182.765 180.952L213.339 156.312C213.339 156.312 219.294 157.135 224.453 165.908C224.453 165.908 204.77 192.498 186.904 206.711C184.291 208.782 178.439 209.243 176.109 206.855C172.179 202.835 168.62 199.238 165.873 195.521" stroke="#263238" stroke-width="0.694822" stroke-linecap="round" stroke-linejoin="round"/>
<path d="M84.5439 183.173L90.6706 179.161" stroke="#263238" stroke-width="0.694822" stroke-linecap="round" stroke-linejoin="round"/>
<path d="M86.815 184.526C88.4362 183.995 90.1383 183.765 91.8399 183.846" stroke="#263238" stroke-width="0.694822" stroke-linecap="round" stroke-linejoin="round"/>
<path d="M79.7206 184.081C83.4433 189.35 86.8922 194.813 90.0534 200.447C90.752 201.71 90.9642 203.191 90.6489 204.603L75.7602 271.385" stroke="#263238" stroke-width="0.694822" stroke-linecap="round" stroke-linejoin="round"/>
<path d="M160.886 143.995L166.015 194.289C166.357 205.578 167.184 212.726 167.675 226.871" stroke="#263238" stroke-width="0.694822" stroke-linecap="round" stroke-linejoin="round"/>
<path d="M103.669 131.935L110.563 176.774L119.794 173.646C126.148 171.493 132.835 170.532 139.529 170.812L148.953 171.212L137.593 123.525H141.903L166.165 195.611L167.653 227.582C167.653 227.582 122.503 217.524 97.2074 231.088L99.1876 250.734C99.1876 250.734 100.394 256.114 101.667 271.778L81.5668 271.408H75.7602L90.4256 206.069C90.4256 206.069 103.081 207.014 102.716 196.677C102.351 186.34 98.8526 134.399 98.8526 134.399L103.669 131.935Z" fill="#263238"/>
<path d="M122.042 131.512C122.042 131.933 121.919 132.345 121.688 132.696C121.457 133.046 121.13 133.319 120.746 133.481C120.362 133.642 119.94 133.684 119.533 133.602C119.126 133.52 118.752 133.317 118.458 133.019C118.165 132.721 117.965 132.341 117.884 131.928C117.803 131.514 117.844 131.086 118.003 130.697C118.162 130.307 118.431 129.974 118.776 129.74C119.121 129.506 119.527 129.381 119.943 129.381C120.499 129.381 121.033 129.606 121.427 130.005C121.821 130.405 122.042 130.947 122.042 131.512Z" fill="#263238"/>
<path d="M122.338 143.995C123.498 143.995 124.438 143.041 124.438 141.864C124.438 140.687 123.498 139.733 122.338 139.733C121.179 139.733 120.239 140.687 120.239 141.864C120.239 143.041 121.179 143.995 122.338 143.995Z" fill="#263238"/>
<path d="M135.463 198.792C143.051 197.477 150.684 196.455 158.362 195.724" stroke="white" stroke-width="0.694822" stroke-linecap="round" stroke-linejoin="round"/>
<path d="M122.346 201.354C125.462 200.684 128.592 200.062 131.733 199.487" stroke="white" stroke-width="0.694822" stroke-linecap="round" stroke-linejoin="round"/>
<path d="M158.362 198.49C152.188 201.009 145.967 203.399 139.699 205.661" stroke="white" stroke-width="0.694822" stroke-linecap="round" stroke-linejoin="round"/>
<path d="M156.918 144.992C157.56 149.084 158.487 153.124 159.695 157.082" stroke="#263238" stroke-width="0.694822" stroke-linecap="round" stroke-linejoin="round"/>
<path d="M246.205 149.367C246.205 149.367 264.072 146.345 264.198 144.751C264.325 143.156 251.334 143.995 248.275 143.723C245.215 143.451 232.396 145.121 231.972 144.305C231.547 143.489 232.589 143.3 235.411 140.912C238.232 138.524 240.309 134.308 239.55 132.971C238.791 131.633 236.274 134.603 234.339 135.691C232.783 136.575 226.894 139.96 225.83 141.441C224.765 142.922 217.686 152.836 215.006 156.614" stroke="#263238" stroke-width="0.694822" stroke-linecap="round" stroke-linejoin="round"/>
<path d="M246.615 149.216C246.615 149.216 265.434 147.463 265.36 148.854C265.241 151.173 252.623 153.002 247.456 153.387" stroke="#263238" stroke-width="0.694822" stroke-linecap="round" stroke-linejoin="round"/>
<path d="M247.336 153.456C247.336 153.456 263.334 151.189 263.096 153.335C262.858 155.481 244.671 158.979 244.671 158.979" stroke="#263238" stroke-width="0.694822" stroke-linecap="round" stroke-linejoin="round"/>
<path d="M223.79 166.746C225.585 164.132 226.768 162.333 226.768 162.333C226.768 162.333 242.178 164.049 244.389 163.618C246.6 163.187 257 156.424 257 156.424" stroke="#263238" stroke-width="0.694822" stroke-linecap="round" stroke-linejoin="round"/>
<path d="M230.572 149.277C232.28 149.488 233.903 150.153 235.278 151.203C236.653 152.254 237.731 153.653 238.403 155.261" stroke="#263238" stroke-width="0.694822" stroke-linecap="round" stroke-linejoin="round"/>
<path d="M185.162 182.577C186.896 185.274 187.09 188.667 187.231 191.886" stroke="#263238" stroke-width="0.694822" stroke-linecap="round" stroke-linejoin="round"/>
<path d="M97.3184 231.98L102.835 279.773C102.835 279.773 102.574 284.805 106.736 287.329C110.897 289.853 129.136 293.963 139.32 293.321C149.503 292.679 162.397 292.029 167.102 288.364C171.807 284.699 170.705 274.801 170.705 274.801L174.1 244.878C174.1 244.878 177.189 233.453 173.467 230.023C166.663 223.796 109.319 219.066 97.3184 231.98Z" fill="white"/>
<path d="M97.3181 234.171C99.5339 236.12 102.121 237.586 104.919 238.478C109.385 239.838 164.355 238.236 171.174 236.883C177.993 235.531 175.521 229.864 171.724 228.277C167.928 226.69 132.664 221.476 117.09 225.073C103.274 228.262 94.6381 228.503 97.3181 234.171Z" fill="#92E3A9"/>
<path opacity="0.6" d="M97.3187 234.17C99.5346 236.12 102.122 237.586 104.919 238.477C109.386 239.838 164.355 238.236 171.174 236.883C177.993 235.53 175.522 229.863 171.725 228.277C167.928 226.69 136.826 222.103 118.066 224.71C104.205 227.884 94.6387 228.503 97.3187 234.17Z" fill="white"/>
<path d="M175.559 232.795C175.559 234.306 173.973 235.666 171.167 236.883C164.608 239.754 151.394 241.704 136.178 241.704C121.647 241.704 108.947 239.928 102.128 237.276C98.7404 235.961 96.7974 234.435 96.7974 232.795C96.7974 227.868 114.433 223.879 136.178 223.879C157.923 223.879 175.559 227.868 175.559 232.795Z" stroke="#263238" stroke-width="0.694822" stroke-linecap="round" stroke-linejoin="round"/>
<path d="M171.166 236.868C164.608 239.739 151.394 241.689 136.178 241.689C121.646 241.689 108.946 239.913 102.127 237.261C107.227 234.027 120.902 231.699 136.974 231.699C152.407 231.715 165.62 233.845 171.166 236.868Z" fill="#263238"/>
<path d="M96.7824 232.796L102.939 282.115C103.076 283.242 103.495 284.315 104.157 285.23C104.819 286.146 105.702 286.874 106.721 287.344C114.47 290.895 135.285 298.021 164.988 289.671C166.237 289.311 167.352 288.583 168.191 287.577C169.03 286.572 169.556 285.336 169.7 284.026L171.583 267.592L171.769 265.914L173.296 252.646L173.631 249.714L175.559 232.796" stroke="#263238" stroke-width="0.694822" stroke-linecap="round" stroke-linejoin="round"/>
<path d="M129.381 293.441C128.376 292.139 127.689 290.614 127.374 288.992C127.06 287.369 127.128 285.693 127.572 284.102C127.572 284.102 123.038 286.407 122.904 290.464C122.904 290.464 116.204 288.575 117.031 278.692C117.031 278.692 113.309 284.782 116.636 291.416C119.964 298.051 129.381 293.441 129.381 293.441Z" fill="#263238"/>
<path d="M146.749 293.472C150.02 290.081 152.16 285.733 152.868 281.042C153.802 284.382 153.748 287.926 152.712 291.235C154.149 290.585 155.412 289.594 156.395 288.346C157.378 287.099 158.052 285.631 158.362 284.064C158.362 284.064 159.307 290.109 156.478 293.472C153.65 296.834 146.749 293.472 146.749 293.472Z" fill="#263238"/>
<path d="M186.927 254.247C185.155 260.534 178.812 267.38 171.584 267.576L171.77 265.899C177.971 265.574 183.755 259.453 185.341 253.809C185.728 252.433 186.376 249.063 184.038 247.537C183.469 247.134 182.821 246.858 182.138 246.727C181.455 246.597 180.753 246.616 180.078 246.781C176.549 247.658 173.921 252.199 173.899 252.245C173.838 252.356 173.751 252.451 173.646 252.522C173.541 252.593 173.421 252.638 173.296 252.653L173.631 249.721C174.852 248.104 176.996 245.829 179.683 245.187C180.577 244.97 181.505 244.945 182.409 245.113C183.312 245.281 184.172 245.638 184.932 246.162C187.232 247.628 187.954 250.597 186.927 254.247Z" fill="#263238"/>
<path d="M130.237 235.485C134.272 237.805 139.245 237.933 143.756 236.853C145.347 236.539 146.863 235.918 148.223 235.024" stroke="white" stroke-width="0.694822" stroke-linecap="round" stroke-linejoin="round"/>
<path d="M154.112 235.787C152.862 237.072 151.332 238.04 149.646 238.613" stroke="white" stroke-width="0.694822" stroke-linecap="round" stroke-linejoin="round"/>
<path d="M102.15 269.012C87.4023 270.788 85.9358 253.492 89.8738 250.764C93.8119 248.036 101.643 257.391 101.643 257.391" stroke="white" stroke-width="1.38964" stroke-linecap="round" stroke-linejoin="round"/>
<path d="M141.113 235.017L111.835 181.005C111.835 181.005 108.633 179.048 108.857 182.955C109.08 186.861 136.029 235.357 136.029 235.357L141.113 235.017Z" fill="white" stroke="#263238" stroke-width="0.694822" stroke-linecap="round" stroke-linejoin="round"/>
<path d="M129.992 246.691C138.851 247.242 150.092 247.023 159.71 244.008" stroke="#263238" stroke-width="0.694822" stroke-linecap="round" stroke-linejoin="round"/>
<path d="M114.396 244.794C114.396 244.794 117.374 245.406 122.071 245.981" stroke="#263238" stroke-width="0.694822" stroke-linecap="round" stroke-linejoin="round"/>
<path d="M86.5832 175.489C80.5783 182.362 75.1287 189.716 70.2875 197.478" stroke="#263238" stroke-width="0.694822" stroke-linecap="round" stroke-linejoin="round"/>
<path d="M66.9075 197.183C63.2771 196.33 59.4852 196.51 55.9494 197.704" stroke="#263238" stroke-width="0.694822" stroke-linecap="round" stroke-linejoin="round"/>
<path d="M65.717 151.996C65.717 151.996 79.1168 159.787 84.0822 171.756" stroke="#263238" stroke-width="0.694822" stroke-linecap="round" stroke-linejoin="round"/>
<path d="M76.8093 200.666C77.0624 210.429 83.0551 220.411 83.0551 220.411L105.083 216.995L103.594 212.666C104.339 213.036 105.872 212.907 106.907 213.157C113.391 214.668 124.029 214.388 124.029 214.388C125.617 213.04 126.942 211.403 127.937 209.56C129.731 206.341 128.041 205.465 128.041 205.465C130.64 201.77 128.644 199.102 128.644 199.102C132.486 196.873 130.878 195.657 130.878 195.657C128.406 191.735 113.823 193.428 113.823 193.428L101.041 204.376L92.3606 202.865L76.8093 200.666Z" fill="white"/>
<path d="M99.857 204.52L101.785 203.878L113.845 193.427C113.845 193.427 129.597 192.581 130.721 195.452C131.845 198.324 128.57 199.654 125.741 200.802" stroke="#263238" stroke-width="0.694822" stroke-linecap="round" stroke-linejoin="round"/>
<path d="M128.183 199.782C128.183 199.782 132.076 201.505 126.694 206.318" stroke="#263238" stroke-width="0.694822" stroke-linecap="round" stroke-linejoin="round"/>
<path d="M127.669 205.585C129.382 204.603 130.506 209.031 124.505 211.162" stroke="#263238" stroke-width="0.694822" stroke-linecap="round" stroke-linejoin="round"/>
<path d="M128.108 209.847L123.709 214.653C123.709 214.653 113.793 215.529 104.882 212.612L103.907 212.9" stroke="#263238" stroke-width="0.694822" stroke-linecap="round" stroke-linejoin="round"/>
<path d="M52.9053 206.001C55.0057 203.736 57.5364 201.926 60.3448 200.68C63.1532 199.435 66.181 198.78 69.2457 198.755C70.5104 198.772 71.7653 198.984 72.9678 199.382C77.2781 200.75 94.9883 202.79 100.393 204.717L105.09 216.738C86.5464 221.499 61.8236 221.884 46.9647 221.181C43.24 220.888 39.613 219.829 36.3044 218.068C35.3401 217.566 34.4837 216.874 33.7848 216.033C33.0859 215.192 32.5584 214.219 32.2329 213.17C31.9074 212.12 31.7905 211.016 31.8888 209.92C31.987 208.824 32.2987 207.759 32.8055 206.787L59.4787 154.649C60.2231 153.236 65.4342 148.249 66.8709 147.66L80.4643 141.003C81.9194 140.294 83.4103 139.663 84.9309 139.114L99.9611 133.998C101.1 133.53 104.428 130.855 104.1 129.638L102.261 122.014C111.252 118.574 120.738 116.657 130.342 116.339" stroke="#263238" stroke-width="0.694822" stroke-linecap="round" stroke-linejoin="round"/>
<path d="M28.2946 111.336H12.2073V121.189H28.2946V111.336Z" stroke="#263238" stroke-width="0.694822" stroke-linecap="round" stroke-linejoin="round"/>
<path d="M35.4487 124.038H19.3615V133.891H35.4487V124.038Z" stroke="#263238" stroke-width="0.694822" stroke-linecap="round" stroke-linejoin="round"/>
<path d="M290.924 108.14H274.837V117.993H290.924V108.14Z" stroke="#263238" stroke-width="0.694822" stroke-linecap="round" stroke-linejoin="round"/>
<path d="M280.898 120.842H264.81V130.695H280.898V120.842Z" stroke="#263238" stroke-width="0.694822" stroke-linecap="round" stroke-linejoin="round"/>
<path d="M54.342 245.648H40.8975V249.32H54.342V245.648Z" stroke="#263238" stroke-width="0.694822" stroke-linecap="round" stroke-linejoin="round"/>
<path d="M61.9657 233.761H46.8908V243.615H61.9657V233.761Z" stroke="#263238" stroke-width="0.694822" stroke-linecap="round" stroke-linejoin="round"/>
<path d="M180.138 49.3834V7.97546H282.453V81.2025H267.207" stroke="#263238" stroke-width="0.694822" stroke-linecap="round" stroke-linejoin="round"/>
<path d="M180.138 64.4878V58.269" stroke="#263238" stroke-width="0.694822" stroke-linecap="round" stroke-linejoin="round"/>
<path d="M193.858 81.2023H180.138V68.5684" stroke="#263238" stroke-width="0.694822" stroke-linecap="round" stroke-linejoin="round"/>
<path d="M207.793 15.3803C207.799 15.6684 207.72 15.9518 207.567 16.1944C207.414 16.4369 207.193 16.6275 206.932 16.742C206.671 16.8564 206.383 16.8895 206.104 16.837C205.825 16.7845 205.567 16.6488 205.364 16.4471C205.161 16.2455 205.022 15.9871 204.965 15.7048C204.907 15.4226 204.934 15.1294 205.041 14.8625C205.148 14.5957 205.331 14.3673 205.567 14.2065C205.803 14.0457 206.08 13.9598 206.364 13.9597C206.738 13.9596 207.097 14.1083 207.364 14.3739C207.632 14.6395 207.786 15.0008 207.793 15.3803Z" stroke="#263238" stroke-width="0.694822" stroke-linecap="round" stroke-linejoin="round"/>
<path d="M231.318 16.9441C232.107 16.9441 232.747 16.2945 232.747 15.4933C232.747 14.692 232.107 14.0425 231.318 14.0425C230.528 14.0425 229.889 14.692 229.889 15.4933C229.889 16.2945 230.528 16.9441 231.318 16.9441Z" stroke="#263238" stroke-width="0.694822" stroke-linecap="round" stroke-linejoin="round"/>
<path d="M257.953 15.3803C257.959 15.6684 257.88 15.9518 257.727 16.1944C257.574 16.4369 257.352 16.6275 257.092 16.742C256.831 16.8564 256.543 16.8895 256.264 16.837C255.985 16.7845 255.727 16.6488 255.524 16.4471C255.321 16.2455 255.182 15.9871 255.125 15.7048C255.067 15.4226 255.094 15.1294 255.201 14.8625C255.308 14.5957 255.491 14.3673 255.727 14.2065C255.962 14.0457 256.24 13.9598 256.524 13.9597C256.898 13.9596 257.257 14.1083 257.524 14.3739C257.791 14.6395 257.945 15.0008 257.953 15.3803Z" stroke="#263238" stroke-width="0.694822" stroke-linecap="round" stroke-linejoin="round"/>
<path d="M210.519 70.9634C210.223 70.9717 209.929 70.9188 209.654 70.8078C209.38 70.6968 209.13 70.5301 208.921 70.318C208.712 70.1058 208.548 69.8526 208.439 69.5738C208.329 69.295 208.277 68.9965 208.285 68.6965L208.985 25.3996C209.06 23.8279 208.531 22.4526 206.983 22.4526H205.925C204.399 22.4526 203.164 23.1629 203.201 24.7195L204.183 68.757C204.191 69.0518 204.141 69.3452 204.035 69.6199C203.93 69.8946 203.771 70.145 203.568 70.3563C203.366 70.5677 203.123 70.7356 202.856 70.8503C202.588 70.9649 202.3 71.0239 202.01 71.0238H201.861C201.29 71.0257 200.743 71.2546 200.336 71.6615C199.93 72.0683 199.697 72.6207 199.687 73.2L199.412 93.2617C199.406 93.7767 199.501 94.2878 199.692 94.7649C199.883 95.242 200.167 95.6756 200.525 96.0402C200.884 96.4048 201.31 96.693 201.78 96.888C202.25 97.083 202.753 97.1808 203.26 97.1758L210.288 97.0851C210.793 97.0793 211.291 96.9716 211.754 96.7683C212.218 96.565 212.636 96.2701 212.986 95.9009C213.336 95.5317 213.61 95.0955 213.792 94.6177C213.974 94.14 214.061 93.6302 214.047 93.1181L213.452 73.0866C213.434 72.5027 213.189 71.9497 212.771 71.5488C212.352 71.148 211.794 70.932 211.218 70.9482L210.519 70.9634Z" stroke="#263238" stroke-width="0.694822" stroke-linecap="round" stroke-linejoin="round"/>
<path d="M204.987 25.611C204.987 25.3569 205.061 25.1086 205.2 24.8973C205.339 24.6861 205.537 24.5214 205.768 24.4242C205.999 24.327 206.254 24.3015 206.499 24.3511C206.745 24.4007 206.97 24.523 207.147 24.7027C207.324 24.8823 207.445 25.1112 207.494 25.3604C207.543 25.6095 207.517 25.8678 207.422 26.1025C207.326 26.3373 207.164 26.5379 206.956 26.679C206.747 26.8202 206.503 26.8955 206.252 26.8955C205.917 26.8955 205.595 26.7602 205.358 26.5193C205.12 26.2784 204.987 25.9517 204.987 25.611Z" stroke="#263238" stroke-width="0.694822" stroke-linecap="round" stroke-linejoin="round"/>
<path d="M201.719 91.5239V80.3483" stroke="#263238" stroke-width="0.694822" stroke-linecap="round" stroke-linejoin="round"/>
<path d="M203.825 91.5239V80.3483" stroke="#263238" stroke-width="0.694822" stroke-linecap="round" stroke-linejoin="round"/>
<path d="M206.238 91.3423L206.208 80.3556" stroke="#263238" stroke-width="0.694822" stroke-linecap="round" stroke-linejoin="round"/>
<path d="M208.807 91.4863V80.3107" stroke="#263238" stroke-width="0.694822" stroke-linecap="round" stroke-linejoin="round"/>
<path d="M211.523 91.4561V80.2805" stroke="#263238" stroke-width="0.694822" stroke-linecap="round" stroke-linejoin="round"/>
<path d="M255.325 26.2989C255.321 26.0436 255.392 25.7928 255.528 25.5784C255.665 25.364 255.861 25.1958 256.093 25.0954C256.324 24.9949 256.579 24.9666 256.827 25.0142C257.074 25.0618 257.301 25.1831 257.48 25.3625C257.659 25.542 257.781 25.7715 257.831 26.0218C257.881 26.2721 257.856 26.5318 257.76 26.7677C257.664 27.0036 257.5 27.2051 257.291 27.3463C257.081 27.4876 256.835 27.5622 256.583 27.5608C256.253 27.5589 255.936 27.4258 255.701 27.19C255.466 26.9542 255.331 26.6343 255.325 26.2989Z" stroke="#263238" stroke-width="0.694822" stroke-linecap="round" stroke-linejoin="round"/>
<path d="M256.837 73.7369L259.495 25.7325C259.515 25.3584 259.46 24.9841 259.333 24.6324C259.206 24.2806 259.01 23.9588 258.756 23.6866C258.503 23.4144 258.197 23.1974 257.858 23.049C257.519 22.9006 257.154 22.8238 256.785 22.8234H256.294C255.932 22.8233 255.575 22.8963 255.242 23.0382C254.909 23.1801 254.607 23.388 254.354 23.6498C254.101 23.9115 253.902 24.2218 253.768 24.5626C253.635 24.9033 253.57 25.2676 253.577 25.6343L254.172 54.1815C254.306 60.7302 254.445 67.2966 254.589 73.8805C254.596 74.1644 254.531 74.4455 254.401 74.6968C254.271 74.9481 254.079 75.1614 253.845 75.3162C252.042 76.5924 250.727 78.4604 250.122 80.6055C249.271 83.4938 249.09 86.5431 249.594 89.5143C250.137 92.703 252.318 96.1864 255.728 96.6624C259.137 97.1384 261.49 94.1235 262.361 91.1691C263.339 88.0414 263.511 84.7114 262.86 81.4971C262.482 80.032 261.808 78.6629 260.879 77.4773C260.042 76.5516 259.009 75.8308 257.857 75.3691C257.539 75.2418 257.268 75.0151 257.085 74.7218C256.902 74.4284 256.815 74.0836 256.837 73.7369Z" stroke="#263238" stroke-width="0.694822" stroke-linecap="round" stroke-linejoin="round"/>
<path d="M251.537 88.7733V82.3582" stroke="#263238" stroke-width="0.694822" stroke-linecap="round" stroke-linejoin="round"/>
<path d="M260.559 88.7733V82.3582" stroke="#263238" stroke-width="0.694822" stroke-linecap="round" stroke-linejoin="round"/>
<path d="M254.223 90.2547V80.7263" stroke="#263238" stroke-width="0.694822" stroke-linecap="round" stroke-linejoin="round"/>
<path d="M258.497 90.2547V80.7263" stroke="#263238" stroke-width="0.694822" stroke-linecap="round" stroke-linejoin="round"/>
<path d="M256.309 93.3603V79.2605" stroke="#263238" stroke-width="0.694822" stroke-linecap="round" stroke-linejoin="round"/>
<path d="M231.266 27.3868C231.965 27.3868 232.531 26.8117 232.531 26.1023C232.531 25.3929 231.965 24.8177 231.266 24.8177C230.567 24.8177 230 25.3929 230 26.1023C230 26.8117 230.567 27.3868 231.266 27.3868Z" stroke="#263238" stroke-width="0.694822" stroke-linecap="round" stroke-linejoin="round"/>
<path d="M232.992 68.364L234.979 25.1275C234.991 24.7574 234.93 24.3886 234.799 24.043C234.668 23.6975 234.47 23.3821 234.216 23.1158C233.963 22.8494 233.659 22.6374 233.324 22.4923C232.988 22.3472 232.627 22.2721 232.262 22.2712H230.394C230.025 22.2717 229.659 22.3485 229.321 22.4969C228.982 22.6453 228.676 22.8622 228.423 23.1345C228.169 23.4067 227.973 23.7285 227.846 24.0802C227.719 24.432 227.664 24.8063 227.684 25.1804L229.999 68.7116C230.022 69.0083 229.965 69.3058 229.833 69.572C229.702 69.8382 229.502 70.0632 229.255 70.2228C227.021 71.6509 220.828 76.3131 220.679 84.3982C220.493 94.2893 231.503 98.687 237.801 95.0222C243.98 91.4406 248.431 76.638 233.922 69.9886C233.621 69.8481 233.37 69.6166 233.204 69.3258C233.037 69.035 232.963 68.6991 232.992 68.364Z" stroke="#263238" stroke-width="0.694822" stroke-linecap="round" stroke-linejoin="round"/>
<path d="M232.427 92.2114C232.805 92.2114 233.112 91.9001 233.112 91.5162C233.112 91.1323 232.805 90.821 232.427 90.821C232.049 90.821 231.742 91.1323 231.742 91.5162C231.742 91.9001 232.049 92.2114 232.427 92.2114Z" stroke="#263238" stroke-width="0.694822" stroke-linecap="round" stroke-linejoin="round"/>
<path d="M227.35 89.7709C227.34 89.673 227.35 89.574 227.38 89.4804C227.41 89.3869 227.459 89.3007 227.524 89.2276C227.589 89.1545 227.668 89.0961 227.757 89.056C227.845 89.016 227.941 88.9954 228.038 88.9954C228.135 88.9954 228.231 89.016 228.32 89.056C228.408 89.0961 228.488 89.1545 228.552 89.2276C228.617 89.3007 228.666 89.3869 228.696 89.4804C228.727 89.574 228.737 89.673 228.727 89.7709C228.709 89.9437 228.629 90.1037 228.502 90.2201C228.375 90.3364 228.209 90.4008 228.038 90.4008C227.867 90.4008 227.702 90.3364 227.575 90.2201C227.448 90.1037 227.367 89.9437 227.35 89.7709Z" stroke="#263238" stroke-width="0.694822" stroke-linecap="round" stroke-linejoin="round"/>
<path d="M236.894 90.4658C237.272 90.4658 237.579 90.1545 237.579 89.7706C237.579 89.3867 237.272 89.0754 236.894 89.0754C236.516 89.0754 236.209 89.3867 236.209 89.7706C236.209 90.1545 236.516 90.4658 236.894 90.4658Z" stroke="#263238" stroke-width="0.694822" stroke-linecap="round" stroke-linejoin="round"/>
<path d="M232.427 87.6702C232.805 87.6702 233.112 87.359 233.112 86.9751C233.112 86.5911 232.805 86.2799 232.427 86.2799C232.049 86.2799 231.742 86.5911 231.742 86.9751C231.742 87.359 232.049 87.6702 232.427 87.6702Z" stroke="#263238" stroke-width="0.694822" stroke-linecap="round" stroke-linejoin="round"/>
<path d="M227.349 85.2297C227.348 85.0904 227.387 84.9538 227.462 84.8372C227.538 84.7207 227.645 84.6294 227.772 84.5751C227.898 84.5207 228.037 84.5057 228.172 84.532C228.307 84.5583 228.431 84.6246 228.529 84.7226C228.626 84.8205 228.693 84.9457 228.72 85.0822C228.747 85.2188 228.734 85.3604 228.682 85.4893C228.63 85.6181 228.541 85.7283 228.427 85.8059C228.313 85.8834 228.179 85.9249 228.042 85.9249C227.859 85.9249 227.684 85.8519 227.555 85.7217C227.425 85.5916 227.351 85.4148 227.349 85.2297Z" stroke="#263238" stroke-width="0.694822" stroke-linecap="round" stroke-linejoin="round"/>
<path d="M236.894 85.9246C237.272 85.9246 237.579 85.6134 237.579 85.2295C237.579 84.8455 237.272 84.5343 236.894 84.5343C236.516 84.5343 236.209 84.8455 236.209 85.2295C236.209 85.6134 236.516 85.9246 236.894 85.9246Z" stroke="#263238" stroke-width="0.694822" stroke-linecap="round" stroke-linejoin="round"/>
<path d="M232.427 83.1367C232.805 83.1367 233.112 82.8254 233.112 82.4415C233.112 82.0576 232.805 81.7463 232.427 81.7463C232.049 81.7463 231.742 82.0576 231.742 82.4415C231.742 82.8254 232.049 83.1367 232.427 83.1367Z" stroke="#263238" stroke-width="0.694822" stroke-linecap="round" stroke-linejoin="round"/>
<path d="M227.35 80.6959C227.34 80.598 227.35 80.4991 227.38 80.4055C227.41 80.3119 227.459 80.2258 227.524 80.1527C227.589 80.0796 227.668 80.0211 227.757 79.9811C227.845 79.9411 227.941 79.9204 228.038 79.9204C228.135 79.9204 228.231 79.9411 228.32 79.9811C228.408 80.0211 228.488 80.0796 228.552 80.1527C228.617 80.2258 228.666 80.3119 228.696 80.4055C228.727 80.4991 228.737 80.598 228.727 80.6959C228.709 80.8688 228.629 81.0288 228.502 81.1451C228.375 81.2615 228.209 81.3259 228.038 81.3259C227.867 81.3259 227.702 81.2615 227.575 81.1451C227.448 81.0288 227.367 80.8688 227.35 80.6959Z" stroke="#263238" stroke-width="0.694822" stroke-linecap="round" stroke-linejoin="round"/>
<path d="M236.894 81.3911C237.272 81.3911 237.579 81.0798 237.579 80.6959C237.579 80.312 237.272 80.0007 236.894 80.0007C236.516 80.0007 236.209 80.312 236.209 80.6959C236.209 81.0798 236.516 81.3911 236.894 81.3911Z" stroke="#263238" stroke-width="0.694822" stroke-linecap="round" stroke-linejoin="round"/>
<path d="M232.427 75.4515C232.805 75.4515 233.112 75.1403 233.112 74.7563C233.112 74.3724 232.805 74.0612 232.427 74.0612C232.049 74.0612 231.742 74.3724 231.742 74.7563C231.742 75.1403 232.049 75.4515 232.427 75.4515Z" stroke="#263238" stroke-width="0.694822" stroke-linecap="round" stroke-linejoin="round"/>
<path d="M227.35 76.5025C227.34 76.6004 227.35 76.6993 227.38 76.7929C227.41 76.8865 227.459 76.9726 227.524 77.0458C227.589 77.1189 227.668 77.1773 227.757 77.2173C227.845 77.2573 227.941 77.278 228.038 77.278C228.135 77.278 228.231 77.2573 228.32 77.2173C228.408 77.1773 228.488 77.1189 228.552 77.0458C228.617 76.9726 228.666 76.8865 228.696 76.7929C228.727 76.6993 228.737 76.6004 228.727 76.5025C228.709 76.3297 228.629 76.1696 228.502 76.0533C228.375 75.9369 228.209 75.8726 228.038 75.8726C227.867 75.8726 227.702 75.9369 227.575 76.0533C227.448 76.1696 227.367 76.3297 227.35 76.5025Z" stroke="#263238" stroke-width="0.694822" stroke-linecap="round" stroke-linejoin="round"/>
<path d="M236.894 77.1973C237.272 77.1973 237.579 76.8861 237.579 76.5022C237.579 76.1182 237.272 75.807 236.894 75.807C236.516 75.807 236.209 76.1182 236.209 76.5022C236.209 76.8861 236.516 77.1973 236.894 77.1973Z" stroke="#263238" stroke-width="0.694822" stroke-linecap="round" stroke-linejoin="round"/>
</svg>
