<svg width="21" height="14" viewBox="0 0 21 14" fill="none" xmlns="http://www.w3.org/2000/svg">
<mask id="mask0_337_125" style="mask-type:alpha" maskUnits="userSpaceOnUse" x="0" y="0" width="21" height="14">
<path d="M0 2.9C0 1.29837 1.29837 0 2.9 0H18.1C19.7016 0 21 1.29837 21 2.9V10.3075C21 11.9092 19.7016 13.2075 18.1 13.2075H2.9C1.29837 13.2075 0 11.9092 0 10.3075V2.9Z" fill="#D9D9D9"/>
</mask>
<g mask="url(#mask0_337_125)">
<path d="M20.9494 -0.39624H0V13.6145H20.9494V-0.39624Z" fill="white"/>
<path d="M20.9494 -0.39624H0V13.6145H20.9494V-0.39624Z" fill="white"/>
<path d="M11.7929 -0.365417H9.25768V13.6453H11.7929V-0.365417Z" fill="#D80027"/>
<path d="M21 5.37225H0.0506248V7.90753H21V5.37225Z" fill="#D80027"/>
<path d="M0.0506248 0.968933L5.78835 4.17139H4.78759L0.0506248 1.54217V0.968933Z" fill="white"/>
<path d="M2.18559 -0.365417L8.19019 2.97047V4.17139L0.0506248 -0.365417H2.18559Z" fill="white"/>
<path d="M0.0506248 -0.365479L8.19019 4.17134H5.78835L0.0506248 0.96889V-0.365479Z" fill="#D80027"/>
<path d="M4.32056 -0.365479L8.19019 -0.365452V2.97042L2.18559 -0.365479H4.32056Z" fill="#0052B4"/>
<path d="M0.0577178 1.53839L4.78759 4.17137L4.25385 4.17135H0.0577164L0.0577178 1.53839Z" fill="#0052B4"/>
<path d="M20.9072 -0.365479L12.7676 4.17134H15.1695L20.9072 0.96889V-0.365479Z" fill="#D80027"/>
<path d="M16.6373 -0.365479L12.7676 -0.365452V2.97042L18.7722 -0.365479H16.6373Z" fill="#0052B4"/>
<path d="M20.9001 1.53839L16.1703 4.17137L16.704 4.17135H20.9001V1.53839Z" fill="#0052B4"/>
<path d="M20.9072 13.5008L12.7676 8.96399H15.1695L20.9072 12.1664V13.5008Z" fill="#D80027"/>
<path d="M16.6373 13.5008H12.7676V10.1649L18.7722 13.5008H16.6373Z" fill="#0052B4"/>
<path d="M20.9001 11.5969L16.1703 8.96399L16.704 8.964H20.9001V11.5969Z" fill="#0052B4"/>
<path d="M0.0506248 13.6342L8.19019 9.09741H5.78835L0.0506248 12.2999V13.6342Z" fill="#D80027"/>
<path d="M4.32056 13.6343H8.19019V10.2984L2.18559 13.6343H4.32056Z" fill="#0052B4"/>
<path d="M0.0577178 11.7303L4.78759 9.09741L4.25385 9.09743H0.0577164L0.0577178 11.7303Z" fill="#0052B4"/>
</g>
</svg>
