<svg width="183" height="78" viewBox="0 0 183 78" fill="none" xmlns="http://www.w3.org/2000/svg">
<path d="M91.0874 1V14.3294H82.2251M89.7905 21.3184H91.0874V17.968C89.5383 17.968 87.0525 18.2562 87.0525 21.4265C87.0525 24.5967 87.0525 25.1371 87.0525 25.1371H75.7405L76.8213 14.3294H82.2251M82.2251 2.80128V14.3294" stroke="#3C7063" stroke-width="0.792562"/>
<path d="M79.7395 2.87329L79.6517 4.42239M79.2351 11.7716L79.6517 4.42239M84.783 2.87329L84.8458 4.42239M85.1433 11.7716L84.8458 4.42239M79.6517 4.42239H84.8458" stroke="#3C7063" stroke-width="0.792562"/>
<path d="M55.4222 25.3533H70.3008H71.8138" stroke="#3C7063" stroke-width="0.792562"/>
<path d="M79.6313 7.44857H84.783M79.6313 10.4387H84.783M88.6377 1L88.5843 2.47705M88.3135 9.97036L88.363 8.60139M88.5843 2.47705H91.1235M88.5843 2.47705L88.4724 5.57524M88.4724 5.57524H91.1235M88.4724 5.57524L88.363 8.60139M88.363 8.60139H91.1235" stroke="#3C7063" stroke-width="0.792562"/>
<path d="M91.0514 1V14.3294H99.9136M92.3483 21.3184H91.0514V17.968C92.6004 17.968 95.0862 18.2562 95.0862 21.4265C95.0862 24.5967 95.0862 25.1371 95.0862 25.1371H106.398L105.317 14.3294H99.9136M99.9136 2.80128V14.3294" stroke="#3C7063" stroke-width="0.792562"/>
<path d="M102.436 2.94519L102.523 4.49429M102.94 11.8435L102.523 4.49429M97.392 2.94519L97.3292 4.49429M97.0317 11.8435L97.3292 4.49429M102.523 4.49429H97.3292" stroke="#3C7063" stroke-width="0.792562"/>
<path d="M126.753 25.4253H111.874H110.361" stroke="#3C7063" stroke-width="0.792562"/>
<path d="M102.543 7.52059H97.3918M102.543 10.5107H97.3918M93.5371 1.07202L93.5905 2.54907M93.8613 10.0424L93.8119 8.67341M93.5905 2.54907H91.0513M93.5905 2.54907L93.7025 5.64726M93.7025 5.64726H91.0513M93.7025 5.64726L93.8119 8.67341M93.8119 8.67341H91.0513" stroke="#3C7063" stroke-width="0.792562"/>
<path d="M1.02197 36.3594C2.44137 36.5013 3.7898 36.5723 5.06727 36.5723C6.28795 36.5723 7.608 36.5013 9.0274 36.3594C9.08418 36.4446 9.11256 36.6149 9.11256 36.8704C9.11256 37.1259 9.08418 37.3104 9.0274 37.424C8.48803 37.424 8.06221 37.4807 7.74994 37.5943C7.43767 37.7078 7.26734 37.8072 7.23895 37.8924C7.09701 38.2046 7.01185 38.5737 6.98346 38.9995C6.98346 39.4253 6.98346 39.9363 6.98346 40.5325V45.5146C8.40286 44.379 9.35386 43.5558 9.83646 43.0448L11.0713 41.8525C11.923 40.9725 12.7604 40.0073 13.5837 38.9569C13.754 38.7298 13.8392 38.4175 13.8392 38.0201C13.8392 37.5943 13.314 37.3814 12.2636 37.3814C12.0933 37.0407 12.0791 36.7001 12.2211 36.3594L15.8831 36.5723C16.8767 36.5723 18.0406 36.5013 19.3748 36.3594C19.4316 36.473 19.4458 36.6433 19.4174 36.8704C19.4174 37.0975 19.3748 37.2536 19.2897 37.3388C18.6935 37.3388 18.0832 37.4807 17.4587 37.7646C16.8341 38.0485 16.3941 38.3182 16.1386 38.5737L10.8584 44.0242C10.7165 44.1945 10.6881 44.3506 10.7733 44.4926L15.8405 51.3057C16.7206 52.4412 17.7141 53.2219 18.8213 53.6477C19.5026 53.9032 20.0562 54.031 20.482 54.031C20.5388 54.1445 20.5529 54.3432 20.5246 54.6271C20.5246 54.8826 20.5104 55.0387 20.482 55.0955C19.6871 55.1523 18.6084 55.1807 17.2457 55.1807C15.8831 55.1807 14.8328 54.9536 14.0947 54.4994C13.385 54.0452 12.8598 53.5768 12.5191 53.0942L7.57961 46.4939C7.49445 46.4088 7.39509 46.3662 7.28153 46.3662C7.16798 46.3662 7.06862 46.423 6.98346 46.5365V50.8799C6.98346 51.5044 6.98346 52.0296 6.98346 52.4554C7.01185 52.8813 7.06862 53.1935 7.15379 53.3922C7.23895 53.5626 7.3525 53.6903 7.49444 53.7755C7.66477 53.8323 7.8351 53.889 8.00543 53.9458C8.3177 54.0026 8.65835 54.031 9.0274 54.031C9.08418 54.1445 9.11256 54.329 9.11256 54.5845C9.11256 54.84 9.08418 55.0104 9.0274 55.0955C6.35892 54.84 3.69045 54.84 1.02197 55.0955C0.965194 55.0104 0.936806 54.84 0.936806 54.5845C0.936806 54.329 0.965194 54.1445 1.02197 54.031C1.61812 54.031 2.05813 53.9742 2.34201 53.8606C2.62589 53.7187 2.79622 53.6051 2.853 53.52C2.99494 53.1793 3.06591 52.2993 3.06591 50.8799V40.5325C3.06591 39.1698 2.99494 38.2898 2.853 37.8924C2.65428 37.5801 2.04394 37.424 1.02197 37.424C0.965194 37.3104 0.936806 37.1259 0.936806 36.8704C0.936806 36.6149 0.965194 36.4446 1.02197 36.3594ZM29.1113 55.0955C27.6919 54.9536 26.4003 54.8826 25.2364 54.8826C24.1008 54.8826 22.8234 54.9536 21.404 55.0955C21.3472 55.0104 21.3188 54.84 21.3188 54.5845C21.3188 54.329 21.3472 54.1445 21.404 54.031C22.0001 54.031 22.4401 53.9742 22.724 53.8606C23.0079 53.7187 23.164 53.6051 23.1924 53.52C23.3344 53.2361 23.4053 52.8813 23.4053 52.4554C23.4337 52.0296 23.4479 51.5044 23.4479 50.8799V39.2976C23.4479 38.673 23.4053 38.2756 23.3202 38.1053C23.235 37.9066 23.1073 37.7788 22.9369 37.722C22.795 37.6653 22.6389 37.6227 22.4685 37.5943C22.0711 37.4807 21.773 37.424 21.5743 37.424C21.5175 37.424 21.4749 37.2962 21.4466 37.0407C21.4466 36.7568 21.4891 36.5865 21.5743 36.5297C23.4763 36.331 25.137 36.0046 26.5564 35.5503C26.8119 35.4652 26.9538 35.4226 26.9822 35.4226C27.1809 35.4794 27.3229 35.6497 27.4081 35.9336C27.3513 36.2742 27.2945 36.6007 27.2377 36.913C27.1526 37.3388 27.11 37.9633 27.11 38.7866V50.8799C27.11 52.2993 27.1526 53.1226 27.2377 53.3497C27.3229 53.5484 27.4364 53.6903 27.5784 53.7755C27.7487 53.8323 27.919 53.889 28.0894 53.9458C28.4016 54.0026 28.7423 54.031 29.1113 54.031C29.1681 54.1445 29.1965 54.329 29.1965 54.5845C29.1965 54.84 29.1681 55.0104 29.1113 55.0955ZM34.5897 53.2219C34.9587 53.2219 35.2426 53.1509 35.4413 53.009C35.6684 52.8387 35.782 52.7109 35.782 52.6258V48.7082C35.4697 48.8501 35.1433 48.9921 34.8026 49.134C34.4903 49.2476 34.1639 49.4179 33.8232 49.645C33.1987 50.0708 32.8864 50.6386 32.8864 51.3483C32.9148 52.058 33.1135 52.5548 33.4826 52.8387C33.8516 53.0942 34.2207 53.2219 34.5897 53.2219ZM40.8918 52.7961C41.0338 52.8813 41.1048 53.009 41.1048 53.1793C41.1048 53.3497 41.0622 53.52 40.977 53.6903C40.8067 53.8606 40.5086 54.0877 40.0828 54.3716C39.3163 54.8826 38.6776 55.1381 38.1666 55.1381C37.6556 55.1381 37.1872 54.9962 36.7614 54.7123C36.364 54.4 36.0943 54.0735 35.9523 53.7329C35.5549 54.1303 34.9871 54.471 34.249 54.7549C33.5393 55.0387 32.9858 55.1807 32.5883 55.1807C32.1909 55.1807 31.7651 55.0813 31.3109 54.8826C30.8567 54.6839 30.4734 54.4284 30.1612 54.1161C29.4515 53.4064 29.0966 52.6967 29.0966 51.987C29.0966 51.2773 29.2386 50.7238 29.5224 50.3263C29.8347 49.9005 30.147 49.645 30.4592 49.5598C30.7999 49.4463 31.1831 49.3044 31.609 49.134C32.0632 48.9637 32.5458 48.7792 33.0567 48.5805C33.7097 48.3534 34.6181 48.0127 35.782 47.5585V46.2384C35.782 45.5287 35.6259 44.89 35.3136 44.3223C35.0013 43.7261 34.5897 43.428 34.0787 43.428C33.5677 43.428 33.1987 43.6551 32.9716 44.1093C32.7729 44.5636 32.6309 45.032 32.5458 45.5146C32.3187 46.5081 31.7651 47.0049 30.8851 47.0049C30.516 47.0049 30.1754 46.8914 29.8631 46.6643C29.5792 46.4088 29.4373 46.1391 29.4373 45.8552C29.4373 45.4578 29.565 45.0036 29.8205 44.4926C30.1328 44.1803 30.6438 43.8397 31.3535 43.4706C32.8013 42.7325 34.0929 42.3635 35.2284 42.3635C36.3923 42.3635 37.3717 42.7609 38.1666 43.5558C38.9898 44.3506 39.4015 45.3868 39.4015 46.6643V51.9019C39.4015 52.2993 39.4724 52.5974 39.6144 52.7961C39.7563 52.9664 39.9125 53.0516 40.0828 53.0516C40.2815 53.0516 40.4518 53.009 40.5938 52.9238L40.8918 52.7961ZM49.1623 43.939C51.0075 43.7971 52.8243 43.3003 54.6128 42.4486C54.7263 42.477 54.8399 42.548 54.9534 42.6616C55.067 42.7751 55.1237 42.8603 55.1237 42.917C55.067 43.059 54.996 43.4422 54.9108 44.0668C54.8257 44.6629 54.7831 45.1597 54.7831 45.5571V51.9444C54.7831 52.1716 54.7831 52.3703 54.7831 52.5406C54.8115 52.7109 54.8966 52.8671 55.0386 53.009C55.2089 53.1793 55.6347 53.2645 56.316 53.2645C56.3728 53.378 56.4012 53.5342 56.4012 53.7329C56.4012 53.9032 56.3444 54.0594 56.2309 54.2013C55.6631 54.2297 54.7405 54.4 53.463 54.7123C52.1856 55.0245 51.5043 55.1807 51.4191 55.1807C51.2488 55.1807 51.1636 54.9536 51.1636 54.4994V54.031C51.1636 53.9174 51.1352 53.8748 51.0784 53.9032C49.801 54.6981 48.4809 55.0955 47.1183 55.0955C45.2731 55.0955 44.1234 54.0594 43.6692 51.987C43.5556 51.3625 43.4988 50.7238 43.4988 50.0708V47.2178C43.4988 46.9907 43.4704 46.6501 43.4137 46.1959C43.3569 45.7417 43.3001 45.4578 43.2433 45.3442C43.1014 45.0603 42.6188 44.89 41.7956 44.8332C41.6252 44.8049 41.5117 44.7907 41.4549 44.7907C41.4265 44.7623 41.4123 44.6203 41.4123 44.3648C41.4123 44.081 41.4407 43.939 41.4975 43.939C42.5762 43.8539 43.6266 43.6551 44.6486 43.3429C45.6705 43.0022 46.4512 42.7041 46.9906 42.4486C47.1041 42.477 47.2035 42.548 47.2886 42.6616C47.4022 42.7751 47.459 42.8603 47.459 42.917C47.4022 43.0306 47.3454 43.2719 47.2886 43.6409C47.2319 44.01 47.1893 44.3223 47.1609 44.5777C47.1609 44.8332 47.1609 45.1597 47.1609 45.5571V48.7934C47.1609 50.2979 47.3028 51.4477 47.5867 52.2425C47.8706 53.009 48.4526 53.3922 49.3326 53.3922C49.73 53.3922 50.1274 53.2787 50.5249 53.0516C50.9507 52.8245 51.1636 52.5974 51.1636 52.3703V47.2178C51.1636 46.9907 51.1352 46.6501 51.0784 46.1959C51.0217 45.7417 50.9649 45.4578 50.9081 45.3442C50.7378 44.9752 50.1416 44.7907 49.1197 44.7907C49.0629 44.7623 49.0345 44.6203 49.0345 44.3648C49.0345 44.081 49.0771 43.939 49.1623 43.939ZM57.0303 50.9651C57.0303 50.8231 57.1722 50.7521 57.4561 50.7521C57.74 50.7521 57.9387 50.8515 58.0523 51.0502C58.251 52.1574 58.6768 52.9664 59.3297 53.4774C59.8123 53.8748 60.3517 54.0735 60.9478 54.0735C61.544 54.0735 61.984 53.9174 62.2679 53.6051C62.5518 53.2929 62.6937 52.9522 62.6937 52.5832C62.6937 52.2141 62.5943 51.9161 62.3956 51.689C62.2253 51.4335 61.9982 51.2206 61.7143 51.0502C61.4588 50.8799 61.1608 50.7096 60.8201 50.5392C59.571 49.9715 58.5207 49.2902 57.669 48.4953C57.1013 47.9559 56.8174 47.2746 56.8174 46.4514C56.8174 45.5997 56.9877 44.9326 57.3284 44.45C57.669 43.9674 58.0948 43.57 58.6058 43.2577C59.571 42.6616 60.7207 42.3635 62.055 42.3635C62.7079 42.3635 63.2757 42.4344 63.7583 42.5764C64.2409 42.6899 64.7235 42.8035 65.206 42.917C65.3764 43.6267 65.5183 44.3506 65.6319 45.0887C65.7454 45.8268 65.8022 46.2668 65.8022 46.4088C65.8022 46.5223 65.6745 46.5791 65.419 46.5791C65.1635 46.5791 64.9506 46.4939 64.7802 46.3236C64.5531 45.5004 64.2976 44.9042 64.0138 44.5352C63.4176 43.8539 62.6795 43.5132 61.7995 43.5132C61.3169 43.5132 60.9195 43.6409 60.6072 43.8964C60.3233 44.1519 60.1814 44.4926 60.1814 44.9184C60.1814 45.3442 60.2665 45.6849 60.4369 45.9404C60.6356 46.1959 60.8627 46.423 61.1182 46.6217C61.402 46.792 61.7143 46.9481 62.055 47.0901C62.3956 47.232 62.7363 47.3882 63.0769 47.5585C63.4176 47.7004 63.7725 47.8708 64.1415 48.0695C64.5105 48.2682 64.837 48.5095 65.1209 48.7934C65.7738 49.4463 66.1003 50.2128 66.1003 51.0928C66.1003 51.9444 65.9441 52.6116 65.6319 53.0942C65.3196 53.5768 64.908 53.9742 64.397 54.2865C63.4318 54.8826 62.1543 55.1807 60.5646 55.1807C59.9117 55.1807 59.2871 55.1097 58.691 54.9678C58.0948 54.7974 57.6122 54.6697 57.2432 54.5845C57.1864 54.1871 57.1438 53.6761 57.1155 53.0516C57.0871 52.3987 57.0587 51.9161 57.0303 51.6038C57.0303 51.2631 57.0303 51.0502 57.0303 50.9651ZM70.6947 47.0475C70.7515 47.0475 70.936 47.0475 71.2483 47.0475C71.589 47.0191 71.958 46.9907 72.3554 46.9623C73.2638 46.934 73.9168 46.8914 74.3142 46.8346C74.5697 46.8062 74.6974 46.6501 74.6974 46.3662C74.6974 46.0539 74.6691 45.7275 74.6123 45.3868C74.5555 45.0462 74.4561 44.7481 74.3142 44.4926C74.0019 43.868 73.5903 43.5558 73.0793 43.5558C72.5967 43.5558 72.2135 43.6977 71.9296 43.9816C71.6457 44.2371 71.4044 44.5494 71.2057 44.9184C70.8651 45.6565 70.6947 46.3662 70.6947 47.0475ZM77.4227 47.814C75.7194 47.9559 73.4768 48.0695 70.6947 48.1546C70.6947 49.8863 71.1773 51.1638 72.1425 51.987C72.8806 52.5832 73.6755 52.8813 74.5271 52.8813C75.4071 52.8813 76.0885 52.7251 76.5711 52.4128C77.0537 52.1006 77.4511 51.7883 77.7634 51.476C77.9905 51.5328 78.104 51.689 78.104 51.9444C78.104 52.1999 78.0472 52.4128 77.9337 52.5832C77.8485 52.7251 77.664 52.9522 77.3801 53.2645C77.0962 53.5484 76.7414 53.8323 76.3156 54.1161C75.2368 54.8542 74.2007 55.2233 73.2071 55.2233C72.2135 55.2233 71.3618 55.0955 70.6521 54.84C69.9424 54.5561 69.3179 54.1587 68.7785 53.6477C67.6146 52.5406 67.0327 51.107 67.0327 49.3469C67.0327 47.5301 67.6572 45.9404 68.9063 44.5777C70.2405 43.13 71.6883 42.4061 73.2497 42.4061C74.9245 42.4061 76.202 42.9029 77.082 43.8964C77.8201 44.6913 78.1892 45.6139 78.1892 46.6643C78.1892 46.9765 78.1182 47.2462 77.9763 47.4733C77.8343 47.7004 77.6498 47.814 77.4227 47.814ZM83.0482 54.8826C81.8843 54.8826 80.5926 54.9536 79.1732 55.0955C79.1164 55.0104 79.0881 54.84 79.0881 54.5845C79.0881 54.329 79.1164 54.1445 79.1732 54.031C79.7694 54.031 80.2094 53.9742 80.4933 53.8606C80.7771 53.7187 80.9475 53.6051 81.0042 53.52C81.1462 53.1793 81.2172 52.2993 81.2172 50.8799V47.2178C81.2172 46.9907 81.1888 46.6501 81.132 46.1959C81.0752 45.7417 81.0184 45.4578 80.9617 45.3442C80.7629 44.9752 80.1668 44.7907 79.1732 44.7907C79.1164 44.7623 79.0881 44.6203 79.0881 44.3648C79.1164 44.081 79.159 43.939 79.2158 43.939C80.2945 43.8539 81.3449 43.6551 82.3669 43.3429C83.3888 43.0022 84.1695 42.7041 84.7089 42.4486C84.794 42.4486 84.8934 42.5196 85.007 42.6616C85.1205 42.7751 85.1631 42.8603 85.1347 42.917C85.1347 42.9738 85.1205 43.0874 85.0921 43.2577C85.0921 43.3996 85.0637 43.5842 85.007 43.8113C84.865 44.379 84.8366 44.6629 84.9218 44.6629C84.9502 44.6629 84.9786 44.6487 85.007 44.6203C85.0353 44.5919 85.0779 44.5636 85.1347 44.5352C85.5321 44.081 86.0147 43.6835 86.5825 43.3429C87.5761 42.7467 88.4277 42.4486 89.1374 42.4486C89.8755 42.4486 90.4859 42.5906 90.9684 42.8745C91.4794 43.13 91.8769 43.5274 92.1607 44.0668C92.6433 45.032 92.8846 46.6927 92.8846 49.0489V50.8799C92.8846 52.2993 92.9272 53.1226 93.0124 53.3497C93.0976 53.5484 93.2111 53.6903 93.353 53.7755C93.5234 53.8323 93.7079 53.889 93.9066 53.9458C94.2473 54.0026 94.5737 54.031 94.886 54.031C94.9712 54.1445 94.9996 54.329 94.9712 54.5845C94.9712 54.84 94.9428 55.0104 94.886 55.0955C93.5518 54.9536 92.2743 54.8826 91.0536 54.8826C90.1168 54.8826 88.9387 54.9536 87.5193 55.0955C87.4625 55.0104 87.4341 54.84 87.4341 54.5845C87.4341 54.329 87.4625 54.1445 87.5193 54.031C87.718 54.031 88.0019 54.0026 88.3709 53.9458C88.74 53.8606 88.9671 53.6903 89.0523 53.4348C89.1658 53.1226 89.2226 52.2709 89.2226 50.8799V48.6656C89.2226 46.0255 88.598 44.7055 87.349 44.7055C86.8096 44.7055 86.3412 44.8332 85.9438 45.0887C85.2341 45.5997 84.8792 45.9971 84.8792 46.281V50.8799C84.8792 52.2993 84.9218 53.1226 85.007 53.3497C85.0921 53.5484 85.2057 53.6903 85.3476 53.7755C85.4896 53.8323 85.6457 53.889 85.816 53.9458C86.0999 54.0026 86.398 54.031 86.7102 54.031C86.767 54.1445 86.7954 54.329 86.7954 54.5845C86.7954 54.84 86.767 55.0104 86.7102 55.0955C85.2908 54.9536 84.0702 54.8826 83.0482 54.8826ZM111.576 41.2989C111.576 38.8008 110.795 37.5517 109.234 37.5517C108.893 37.5517 108.581 37.5659 108.297 37.5943C108.042 37.6227 107.886 37.722 107.829 37.8924C107.715 38.1195 107.658 38.6872 107.658 39.5956V44.5352H109.149C109.859 44.5352 110.44 44.2655 110.895 43.7261C111.349 43.1583 111.576 42.3493 111.576 41.2989ZM105.742 36.4872L110.043 36.402C111.548 36.402 112.825 36.7426 113.875 37.424C115.125 38.2188 115.749 39.3685 115.749 40.8731C115.749 42.2641 114.997 43.3996 113.492 44.2797C113.152 44.4784 112.896 44.6061 112.726 44.6629C112.584 44.7197 112.513 44.7623 112.513 44.7907C112.513 44.819 112.598 44.8474 112.768 44.8758C112.967 44.9042 113.322 45.032 113.833 45.2591C114.372 45.4578 114.869 45.77 115.323 46.1959C116.487 47.1894 117.069 48.3108 117.069 49.5598C117.069 50.4967 116.799 51.3625 116.26 52.1574C115.721 52.9522 115.025 53.6051 114.174 54.1161C113.322 54.5987 112.385 54.8826 111.363 54.9678C110.341 55.0529 109.489 55.0813 108.808 55.0529C108.127 55.0529 107.488 55.0529 106.892 55.0529C105.16 55.0529 103.429 55.0529 101.697 55.0529C101.64 54.9678 101.612 54.7974 101.612 54.542C101.612 54.2865 101.64 54.1161 101.697 54.031C101.811 54.031 102.052 54.0026 102.421 53.9458C103.045 53.8606 103.414 53.7187 103.528 53.52C103.67 53.1793 103.741 52.2993 103.741 50.8799V40.5325C103.741 39.1698 103.67 38.2898 103.528 37.8924C103.329 37.6085 102.719 37.4665 101.697 37.4665C101.64 37.353 101.612 37.1685 101.612 36.913C101.612 36.6575 101.64 36.4872 101.697 36.402C102.35 36.4588 103.031 36.4872 103.741 36.4872H105.742ZM107.658 51.9019C107.658 52.7819 107.729 53.3213 107.871 53.52C108.013 53.6903 108.255 53.7897 108.595 53.8181C108.936 53.8464 109.277 53.8606 109.617 53.8606C109.986 53.8606 110.341 53.8039 110.682 53.6903C111.051 53.5484 111.377 53.3213 111.661 53.009C112.342 52.3561 112.683 51.3625 112.683 50.0283C112.683 48.0695 112.059 46.7352 110.81 46.0255C110.355 45.77 109.802 45.6423 109.149 45.6423H107.658V51.9019ZM125.573 43.939C127.418 43.7971 129.235 43.3003 131.023 42.4486C131.137 42.477 131.251 42.548 131.364 42.6616C131.478 42.7751 131.534 42.8603 131.534 42.917C131.478 43.059 131.407 43.4422 131.322 44.0668C131.236 44.6629 131.194 45.1597 131.194 45.5571V51.9444C131.194 52.1716 131.194 52.3703 131.194 52.5406C131.222 52.7109 131.307 52.8671 131.449 53.009C131.62 53.1793 132.045 53.2645 132.727 53.2645C132.784 53.378 132.812 53.5342 132.812 53.7329C132.812 53.9032 132.755 54.0594 132.642 54.2013C132.074 54.2297 131.151 54.4 129.874 54.7123C128.596 55.0245 127.915 55.1807 127.83 55.1807C127.659 55.1807 127.574 54.9536 127.574 54.4994V54.031C127.574 53.9174 127.546 53.8748 127.489 53.9032C126.212 54.6981 124.892 55.0955 123.529 55.0955C121.684 55.0955 120.534 54.0594 120.08 51.987C119.966 51.3625 119.91 50.7238 119.91 50.0708V47.2178C119.91 46.9907 119.881 46.6501 119.824 46.1959C119.768 45.7417 119.711 45.4578 119.654 45.3442C119.512 45.0603 119.03 44.89 118.206 44.8332C118.036 44.8049 117.922 44.7907 117.866 44.7907C117.837 44.7623 117.823 44.6203 117.823 44.3648C117.823 44.081 117.851 43.939 117.908 43.939C118.987 43.8539 120.037 43.6551 121.059 43.3429C122.081 43.0022 122.862 42.7041 123.401 42.4486C123.515 42.477 123.614 42.548 123.699 42.6616C123.813 42.7751 123.87 42.8603 123.87 42.917C123.813 43.0306 123.756 43.2719 123.699 43.6409C123.643 44.01 123.6 44.3223 123.572 44.5777C123.572 44.8332 123.572 45.1597 123.572 45.5571V48.7934C123.572 50.2979 123.714 51.4477 123.997 52.2425C124.281 53.009 124.863 53.3922 125.743 53.3922C126.141 53.3922 126.538 53.2787 126.936 53.0516C127.361 52.8245 127.574 52.5974 127.574 52.3703V47.2178C127.574 46.9907 127.546 46.6501 127.489 46.1959C127.432 45.7417 127.376 45.4578 127.319 45.3442C127.148 44.9752 126.552 44.7907 125.53 44.7907C125.474 44.7623 125.445 44.6203 125.445 44.3648C125.445 44.081 125.488 43.939 125.573 43.939ZM136.848 54.8826C135.684 54.8826 134.392 54.9536 132.973 55.0955C132.916 55.0104 132.887 54.84 132.887 54.5845C132.887 54.329 132.916 54.1445 132.973 54.031C133.569 54.031 134.009 53.9742 134.293 53.8606C134.577 53.7187 134.747 53.6051 134.804 53.52C134.946 53.1793 135.017 52.2993 135.017 50.8799V47.2178C135.017 46.9907 134.988 46.6501 134.931 46.1959C134.875 45.7417 134.818 45.4578 134.761 45.3442C134.562 44.9752 133.966 44.7907 132.973 44.7907C132.916 44.7623 132.887 44.6203 132.887 44.3648C132.916 44.081 132.958 43.939 133.015 43.939C134.094 43.8539 135.144 43.6551 136.166 43.3429C137.188 43.0022 137.969 42.7041 138.508 42.4486C138.593 42.477 138.693 42.548 138.806 42.6616C138.92 42.7751 138.962 42.8603 138.934 42.917C138.934 42.9738 138.92 43.1016 138.892 43.3003C138.863 43.499 138.835 43.7261 138.806 43.9816C138.778 44.2087 138.75 44.4358 138.721 44.6629C138.693 44.89 138.679 45.0461 138.679 45.1313C138.679 45.1881 138.707 45.2307 138.764 45.2591C138.821 45.2591 138.849 45.2449 138.849 45.2165C139.36 44.3648 139.786 43.7687 140.126 43.428C140.864 42.7467 141.617 42.4061 142.383 42.4061C143.235 42.4061 143.817 42.5622 144.129 42.8745C144.356 43.2151 144.47 43.5984 144.47 44.0242C144.47 44.4216 144.427 44.7623 144.342 45.0462C144.257 45.3016 144.129 45.5429 143.959 45.77C143.618 46.2526 143.221 46.4939 142.766 46.4939C142.511 46.4939 142.284 46.4088 142.085 46.2384C141.915 46.0681 141.745 45.912 141.574 45.77C141.432 45.6281 141.276 45.5004 141.106 45.3868C140.964 45.2449 140.765 45.1739 140.51 45.1739C140.254 45.1739 140.013 45.2733 139.786 45.472C139.559 45.6423 139.36 45.8552 139.19 46.1107C138.849 46.6217 138.679 47.0759 138.679 47.4733V50.8799C138.679 52.2993 138.721 53.1226 138.806 53.3497C138.892 53.5484 139.005 53.6903 139.147 53.7755C139.289 53.8323 139.445 53.889 139.615 53.9458C139.899 54.0026 140.197 54.031 140.51 54.031C140.566 54.1445 140.595 54.329 140.595 54.5845C140.595 54.84 140.566 55.0104 140.51 55.0955C139.09 54.9536 137.87 54.8826 136.848 54.8826ZM157.146 44.6629C156.38 44.6061 155.897 44.5636 155.699 44.5352C155.5 44.5068 155.401 44.521 155.401 44.5777C155.798 45.1739 155.997 45.7984 155.997 46.4514C155.997 47.1043 155.869 47.6862 155.614 48.1972C155.358 48.7082 154.989 49.1482 154.506 49.5173C153.484 50.3689 152.278 50.7947 150.887 50.7947C150.348 50.7947 149.865 50.7521 149.439 50.667C149.297 50.8089 149.141 50.9509 148.971 51.0928C148.829 51.2347 148.758 51.4051 148.758 51.6038C148.758 51.7741 148.9 51.9303 149.184 52.0722C149.468 52.1857 149.822 52.2425 150.248 52.2425C150.702 52.2425 151.284 52.2425 151.994 52.2425C152.732 52.2141 153.385 52.2283 153.953 52.2851C154.521 52.3135 155.032 52.4554 155.486 52.7109C155.968 52.938 156.366 53.2077 156.678 53.52C157.274 54.1161 157.572 54.7833 157.572 55.5213C157.572 56.2594 157.359 56.9833 156.934 57.693C156.508 58.4027 155.94 58.9989 155.23 59.4815C153.697 60.5602 151.966 61.0996 150.035 61.0996C148.644 61.0996 147.509 60.8015 146.629 60.2054C145.777 59.6092 145.351 58.8285 145.351 57.8634C145.351 57.2956 145.607 56.7562 146.118 56.2452C146.657 55.7626 147.196 55.3936 147.736 55.1381C147.253 54.9962 146.842 54.6555 146.501 54.1161C146.189 53.5484 146.033 52.9664 146.033 52.3703C146.033 51.9161 146.813 51.2347 148.375 50.3263C147.551 50.0141 146.898 49.5457 146.416 48.9211C145.962 48.2682 145.734 47.5869 145.734 46.8772C145.734 46.1675 145.862 45.5713 146.118 45.0887C146.402 44.5777 146.771 44.1235 147.225 43.7261C148.19 42.9312 149.397 42.5338 150.844 42.5338C152.122 42.5338 153.115 42.7609 153.825 43.2151C153.882 43.2719 153.939 43.3003 153.995 43.3003L157.53 42.9596C157.728 43.0732 157.828 43.1867 157.828 43.3003C157.828 43.3854 157.743 43.6126 157.572 43.9816C157.43 44.3506 157.288 44.5777 157.146 44.6629ZM148.886 55.351C148.573 55.7484 148.417 56.1601 148.417 56.5859C148.417 57.5227 148.729 58.2466 149.354 58.7576C149.979 59.2686 150.702 59.5241 151.526 59.5241C152.377 59.5241 153.016 59.4389 153.442 59.2686C153.868 59.1266 154.208 58.9421 154.464 58.715C154.89 58.346 155.103 57.8492 155.103 57.2246C155.103 56.6001 154.804 56.1317 154.208 55.8194C153.612 55.5071 152.86 55.351 151.951 55.351H148.886ZM150.717 43.5558C149.808 43.5558 149.297 44.1519 149.184 45.3442C149.155 45.6849 149.141 46.0397 149.141 46.4088C149.141 46.7494 149.169 47.1327 149.226 47.5585C149.311 47.9559 149.425 48.325 149.567 48.6656C149.936 49.4037 150.461 49.7728 151.142 49.7728C152.051 49.7728 152.519 49.1482 152.548 47.8991C152.576 47.5869 152.59 47.2604 152.59 46.9198C152.59 46.5791 152.562 46.2101 152.505 45.8126C152.448 45.3868 152.349 45.0036 152.207 44.6629C151.866 43.9248 151.37 43.5558 150.717 43.5558ZM162.637 47.0475C162.694 47.0475 162.878 47.0475 163.191 47.0475C163.531 47.0191 163.9 46.9907 164.298 46.9623C165.206 46.934 165.859 46.8914 166.257 46.8346C166.512 46.8062 166.64 46.6501 166.64 46.3662C166.64 46.0539 166.611 45.7275 166.555 45.3868C166.498 45.0462 166.398 44.7481 166.257 44.4926C165.944 43.868 165.533 43.5558 165.022 43.5558C164.539 43.5558 164.156 43.6977 163.872 43.9816C163.588 44.2371 163.347 44.5494 163.148 44.9184C162.807 45.6565 162.637 46.3662 162.637 47.0475ZM169.365 47.814C167.662 47.9559 165.419 48.0695 162.637 48.1546C162.637 49.8863 163.12 51.1638 164.085 51.987C164.823 52.5832 165.618 52.8813 166.469 52.8813C167.349 52.8813 168.031 52.7251 168.513 52.4128C168.996 52.1006 169.393 51.7883 169.706 51.476C169.933 51.5328 170.046 51.689 170.046 51.9444C170.046 52.1999 169.99 52.4128 169.876 52.5832C169.791 52.7251 169.606 52.9522 169.322 53.2645C169.039 53.5484 168.684 53.8323 168.258 54.1161C167.179 54.8542 166.143 55.2233 165.149 55.2233C164.156 55.2233 163.304 55.0955 162.595 54.84C161.885 54.5561 161.26 54.1587 160.721 53.6477C159.557 52.5406 158.975 51.107 158.975 49.3469C158.975 47.5301 159.6 45.9404 160.849 44.5777C162.183 43.13 163.631 42.4061 165.192 42.4061C166.867 42.4061 168.144 42.9029 169.024 43.8964C169.762 44.6913 170.132 45.6139 170.132 46.6643C170.132 46.9765 170.061 47.2462 169.919 47.4733C169.777 47.7004 169.592 47.814 169.365 47.814ZM174.991 54.8826C173.827 54.8826 172.535 54.9536 171.116 55.0955C171.059 55.0104 171.03 54.84 171.03 54.5845C171.03 54.329 171.059 54.1445 171.116 54.031C171.712 54.031 172.152 53.9742 172.436 53.8606C172.719 53.7187 172.89 53.6051 172.947 53.52C173.089 53.1793 173.16 52.2993 173.16 50.8799V47.2178C173.16 46.9907 173.131 46.6501 173.074 46.1959C173.018 45.7417 172.961 45.4578 172.904 45.3442C172.705 44.9752 172.109 44.7907 171.116 44.7907C171.059 44.7623 171.03 44.6203 171.03 44.3648C171.059 44.081 171.101 43.939 171.158 43.939C172.237 43.8539 173.287 43.6551 174.309 43.3429C175.331 43.0022 176.112 42.7041 176.651 42.4486C176.736 42.477 176.836 42.548 176.949 42.6616C177.063 42.7751 177.105 42.8603 177.077 42.917C177.077 42.9738 177.063 43.1016 177.034 43.3003C177.006 43.499 176.978 43.7261 176.949 43.9816C176.921 44.2087 176.893 44.4358 176.864 44.6629C176.836 44.89 176.822 45.0461 176.822 45.1313C176.822 45.1881 176.85 45.2307 176.907 45.2591C176.964 45.2591 176.992 45.2449 176.992 45.2165C177.503 44.3648 177.929 43.7687 178.269 43.428C179.007 42.7467 179.76 42.4061 180.526 42.4061C181.378 42.4061 181.96 42.5622 182.272 42.8745C182.499 43.2151 182.613 43.5984 182.613 44.0242C182.613 44.4216 182.57 44.7623 182.485 45.0462C182.4 45.3016 182.272 45.5429 182.102 45.77C181.761 46.2526 181.364 46.4939 180.909 46.4939C180.654 46.4939 180.427 46.4088 180.228 46.2384C180.058 46.0681 179.887 45.912 179.717 45.77C179.575 45.6281 179.419 45.5004 179.249 45.3868C179.107 45.2449 178.908 45.1739 178.653 45.1739C178.397 45.1739 178.156 45.2733 177.929 45.472C177.702 45.6423 177.503 45.8552 177.333 46.1107C176.992 46.6217 176.822 47.0759 176.822 47.4733V50.8799C176.822 52.2993 176.864 53.1226 176.949 53.3497C177.034 53.5484 177.148 53.6903 177.29 53.7755C177.432 53.8323 177.588 53.889 177.758 53.9458C178.042 54.0026 178.34 54.031 178.653 54.031C178.709 54.1445 178.738 54.329 178.738 54.5845C178.738 54.84 178.709 55.0104 178.653 55.0955C177.233 54.9536 176.013 54.8826 174.991 54.8826Z" fill="#3C7063"/>
<path d="M62.8199 69.9977C62.8199 69.7716 62.8748 69.6118 62.9846 69.5181C63.0944 69.4213 63.2285 69.3728 63.3867 69.3728C63.5514 69.3728 63.6902 69.4213 63.8033 69.5181C63.9163 69.6118 63.9728 69.7716 63.9728 69.9977C63.9728 70.2205 63.9163 70.3836 63.8033 70.4869C63.6902 70.587 63.5514 70.6371 63.3867 70.6371C63.2285 70.6371 63.0944 70.587 62.9846 70.4869C62.8748 70.3836 62.8199 70.2205 62.8199 69.9977Z" fill="#3C7063"/>
<path d="M117.558 69.9976C117.558 69.7715 117.613 69.6117 117.723 69.518C117.833 69.4211 117.967 69.3727 118.125 69.3727C118.29 69.3727 118.428 69.4211 118.541 69.518C118.654 69.6117 118.711 69.7715 118.711 69.9976C118.711 70.2204 118.654 70.3835 118.541 70.4868C118.428 70.5869 118.29 70.637 118.125 70.637C117.967 70.637 117.833 70.5869 117.723 70.4868C117.613 70.3835 117.558 70.2204 117.558 69.9976Z" fill="#3C7063"/>
<path d="M67.7153 66.1564H69.8224C70.7363 66.1564 71.4258 66.2888 71.8908 66.5536C72.3558 66.8184 72.5883 67.2754 72.5883 67.9244C72.5883 68.1957 72.5399 68.4411 72.443 68.6607C72.3494 68.8771 72.2121 69.0563 72.0313 69.1984C71.8504 69.3373 71.6276 69.4309 71.3628 69.4794V69.5278C71.6373 69.5762 71.8811 69.6618 72.0942 69.7845C72.3106 69.9072 72.4801 70.0832 72.6029 70.3125C72.7288 70.5418 72.7918 70.8389 72.7918 71.2038C72.7918 71.6365 72.6884 72.0047 72.4818 72.3082C72.2783 72.6118 71.9861 72.8427 71.605 73.0009C71.2272 73.1592 70.7783 73.2383 70.2584 73.2383H67.7153V66.1564ZM68.8778 69.0773H69.992C70.5183 69.0773 70.8832 68.9917 71.0867 68.8206C71.2901 68.6494 71.3919 68.3992 71.3919 68.0698C71.3919 67.7339 71.2708 67.4917 71.0286 67.3432C70.7896 67.1946 70.4085 67.1203 69.8854 67.1203H68.8778V69.0773ZM68.8778 70.017V72.2646H70.1034C70.6459 72.2646 71.0269 72.1597 71.2465 71.9498C71.4661 71.7399 71.5759 71.4557 71.5759 71.0972C71.5759 70.8777 71.5259 70.6871 71.4258 70.5257C71.3289 70.3642 71.169 70.2399 70.9462 70.1527C70.7234 70.0623 70.4231 70.017 70.0452 70.017H68.8778ZM76.8407 66.1564C77.4511 66.1564 77.9549 66.2307 78.3521 66.3792C78.7525 66.5278 79.0496 66.7538 79.2434 67.0574C79.4403 67.3609 79.5388 67.7468 79.5388 68.2151C79.5388 68.5639 79.4743 68.8609 79.3451 69.1064C79.2159 69.3518 79.0464 69.5553 78.8365 69.7167C78.6266 69.8782 78.4021 70.0074 78.1631 70.1042L80.1734 73.2383H78.8607L77.1508 70.3997H76.0124V73.2383H74.8499V66.1564H76.8407ZM76.7632 67.1252H76.0124V69.4406H76.8165C77.3558 69.4406 77.7466 69.3405 77.9888 69.1403C78.2342 68.9401 78.3569 68.6446 78.3569 68.2538C78.3569 67.8437 78.2261 67.5531 77.9645 67.3819C77.7062 67.2108 77.3058 67.1252 76.7632 67.1252ZM85.7918 73.2383H81.781V66.1564H85.7918V67.1349H82.9436V69.0579H85.6126V70.0316H82.9436V72.255H85.7918V73.2383ZM96.293 66.1564L94.4426 73.2383H93.1734L91.9915 68.995C91.9625 68.8916 91.9302 68.7689 91.8946 68.6268C91.8591 68.4847 91.8236 68.3394 91.7881 68.1909C91.7558 68.0423 91.7267 67.9067 91.7009 67.784C91.6783 67.658 91.6621 67.5611 91.6524 67.4933C91.646 67.5611 91.6314 67.6564 91.6088 67.7791C91.5862 67.9018 91.5588 68.0375 91.5265 68.186C91.4974 68.3313 91.4651 68.4767 91.4296 68.622C91.3941 68.7641 91.3618 68.89 91.3327 68.9998L90.1702 73.2383H88.9059L87.0604 66.1564H88.2278L89.2498 70.3077C89.2821 70.4401 89.3144 70.5838 89.3467 70.7388C89.3822 70.8906 89.4145 71.044 89.4436 71.199C89.4759 71.354 89.5049 71.5058 89.5308 71.6543C89.5566 71.7996 89.5776 71.932 89.5938 72.0515C89.6099 71.9288 89.6309 71.7932 89.6567 71.6446C89.6826 71.4928 89.71 71.3394 89.7391 71.1844C89.7714 71.0262 89.8037 70.8744 89.836 70.7291C89.8715 70.5838 89.907 70.453 89.9425 70.3367L91.0954 66.1564H92.2289L93.406 70.3513C93.4415 70.4708 93.4754 70.6048 93.5077 70.7533C93.5432 70.9019 93.5771 71.0537 93.6094 71.2087C93.6417 71.3637 93.6708 71.5138 93.6966 71.6591C93.7224 71.8045 93.7434 71.9353 93.7596 72.0515C93.7822 71.8933 93.8112 71.7124 93.8468 71.509C93.8823 71.3055 93.9226 71.0989 93.9679 70.889C94.0131 70.6791 94.0583 70.4853 94.1035 70.3077L95.1207 66.1564H96.293ZM101.902 73.2383H97.8909V66.1564H101.902V67.1349H99.0534V69.0579H101.722V70.0316H99.0534V72.255H101.902V73.2383ZM106.018 66.1564C106.629 66.1564 107.133 66.2307 107.53 66.3792C107.93 66.5278 108.227 66.7538 108.421 67.0574C108.618 67.3609 108.717 67.7468 108.717 68.2151C108.717 68.5639 108.652 68.8609 108.523 69.1064C108.394 69.3518 108.224 69.5553 108.014 69.7167C107.804 69.8782 107.58 70.0074 107.341 70.1042L109.351 73.2383H108.038L106.329 70.3997H105.19V73.2383H104.028V66.1564H106.018ZM105.941 67.1252H105.19V69.4406H105.994C106.534 69.4406 106.924 69.3405 107.167 69.1403C107.412 68.9401 107.535 68.6446 107.535 68.2538C107.535 67.8437 107.404 67.5531 107.142 67.3819C106.884 67.2108 106.484 67.1252 105.941 67.1252ZM112.964 69.3873L114.645 66.1564H115.9L113.545 70.4869V73.2383H112.388V70.5305L110.029 66.1564H111.293L112.964 69.3873Z" fill="#3C7063"/>
</svg>
