<svg width="218" height="215" viewBox="0 0 218 215" fill="none" xmlns="http://www.w3.org/2000/svg">
<path d="M9.33521 135.101L12.1841 136.454C12.1841 136.454 13.3237 134.08 15.8307 135.201C16.3187 135.41 16.7293 135.766 17.0051 136.22C17.2809 136.674 17.4081 137.202 17.3692 137.732C17.3413 138.177 17.209 138.61 16.983 138.995C16.757 139.381 16.4436 139.707 16.0682 139.949C15.2087 140.514 13.8033 140.737 12.0417 139.474L10.0522 143.657L12.8774 144.996L13.5991 143.477C14.9187 143.686 16.2706 143.456 17.4467 142.822C18.6229 142.188 19.5582 141.185 20.1089 139.968C22.0889 135.799 18.8031 133.055 17.203 132.295C15.9779 131.725 11.6666 130.044 9.33521 135.101Z" fill="#E0E0E0"/>
<path d="M12.399 146.112L9.5376 144.754L8.26968 147.427L11.1311 148.784L12.399 146.112Z" fill="#E0E0E0"/>
<path d="M37.0361 181.387L40.2602 182.298C40.2602 182.298 41.0246 179.592 43.8498 180.342C44.3963 180.475 44.8876 180.775 45.2553 181.201C45.623 181.627 45.8488 182.156 45.901 182.716C45.9544 183.185 45.8962 183.66 45.7312 184.103C45.5662 184.545 45.299 184.942 44.9514 185.261C44.1489 186.012 42.7197 186.491 40.678 185.494L39.3438 190.242L42.5298 191.144L43.0046 189.421C43.0046 189.421 47.8003 189.53 49.1773 184.606C50.5115 179.896 46.5943 177.607 44.7852 177.094C43.3892 176.686 38.5983 175.684 37.0361 181.387Z" fill="#E0E0E0"/>
<path d="M42.1895 192.362L38.9546 191.448L38.1006 194.468L41.3354 195.382L42.1895 192.362Z" fill="#E0E0E0"/>
<path d="M172.165 79.737L175.256 79.794C177.072 81.8271 179.582 83.1079 182.294 83.3847C185.005 83.6614 187.722 82.9141 189.911 81.2896C192.1 79.6652 193.602 77.2809 194.122 74.6053C194.643 71.9297 194.144 69.1563 192.724 66.8298C191.303 64.5034 189.064 62.7921 186.447 62.0323C183.829 61.2725 181.022 61.519 178.577 62.7234C176.132 63.9278 174.225 66.0031 173.232 68.5415C172.239 71.0799 172.231 73.8979 173.21 76.4418L172.165 79.737Z" fill="white"/>
<path d="M172.165 79.7371C172.179 79.6661 172.198 79.5962 172.222 79.5282C172.263 79.3762 172.325 79.1673 172.407 78.9014C172.583 78.3269 172.83 77.477 173.158 76.4181C173.159 76.4117 173.162 76.4057 173.166 76.4005C173.17 76.3953 173.175 76.391 173.181 76.3879C173.187 76.3848 173.193 76.3829 173.2 76.3824C173.207 76.3818 173.213 76.3827 173.219 76.3849C173.229 76.3816 173.239 76.3816 173.248 76.3849L173.158 76.4371C172.373 74.4117 172.203 72.1996 172.669 70.078C173.135 67.9563 174.217 66.0193 175.779 64.5096C176.959 63.3765 178.376 62.5198 179.928 62.0014C181.48 61.4831 183.128 61.316 184.752 61.5123C186.377 61.7085 187.937 62.2633 189.321 63.1364C190.705 64.0095 191.877 65.1792 192.753 66.5609C193.727 68.0905 194.306 69.8378 194.439 71.6462C194.63 74.078 194.01 76.5046 192.675 78.5461C191.34 80.5876 189.365 82.1286 187.06 82.9279C184.644 83.7623 182.014 83.7355 179.615 82.8519C177.921 82.2246 176.41 81.1851 175.218 79.8273H175.252L172.944 79.7561H172.355H172.165H172.972H175.252C175.257 79.7536 175.262 79.7523 175.268 79.7523C175.274 79.7523 175.28 79.7536 175.285 79.7561C176.248 80.8223 177.412 81.6875 178.71 82.3018C180.009 82.9161 181.416 83.2673 182.851 83.3353C184.286 83.4032 185.72 83.1866 187.071 82.6978C188.421 82.209 189.662 81.4578 190.721 80.4873C191.894 79.4158 192.816 78.0995 193.423 76.6318C194.055 75.0631 194.319 73.3708 194.197 71.6842C193.997 69.0917 192.871 66.6578 191.024 64.8271C189.178 62.9964 186.734 61.891 184.14 61.713C181.976 61.5644 179.818 62.0694 177.944 63.1624C176.07 64.2554 174.568 65.886 173.632 67.8429C173.124 68.8898 172.789 70.0123 172.64 71.1666C172.411 72.9471 172.621 74.7567 173.253 76.4371C173.256 76.4433 173.257 76.45 173.258 76.4569C173.258 76.4638 173.256 76.4706 173.254 76.4769C173.251 76.4833 173.247 76.4889 173.242 76.4935C173.237 76.4981 173.231 76.5016 173.224 76.5036C173.215 76.5101 173.204 76.5137 173.193 76.5137C173.182 76.5137 173.171 76.5101 173.162 76.5036H173.257L172.46 78.9347C172.365 79.2053 172.298 79.4095 172.246 79.5662C172.194 79.7229 172.165 79.7371 172.165 79.7371Z" fill="#E0E0E0"/>
<path d="M179.791 71.0051H181.723C181.722 70.7846 181.765 70.5659 181.85 70.3623C181.935 70.1588 182.06 69.9744 182.218 69.8201C182.376 69.6659 182.563 69.5451 182.768 69.4648C182.974 69.3845 183.193 69.3464 183.414 69.3528C183.739 69.3418 184.06 69.4324 184.331 69.6119C184.602 69.7914 184.811 70.051 184.928 70.3546C185.03 70.6083 185.07 70.8823 185.046 71.1545C185.023 71.4267 184.935 71.6895 184.791 71.9216C184.463 72.4581 183.741 72.9519 182.44 72.724V75.5729H184.34V74.5426C185.125 74.3118 185.813 73.8295 186.298 73.1698C186.782 72.5102 187.037 71.7096 187.022 70.8912C187.022 68.0423 184.482 67.406 183.4 67.406C182.583 67.3918 179.753 67.5959 179.791 71.0051Z" fill="#E0E0E0"/>
<path d="M184.377 76.2993H182.435V78.1131H184.377V76.2993Z" fill="#E0E0E0"/>
<path d="M51.7131 21.2014H60.7821C60.7821 21.2014 60.7821 13.6043 68.6974 13.4523C70.2243 13.3938 71.7313 13.8134 73.0082 14.6527C74.285 15.4921 75.2679 16.7091 75.8197 18.1341C76.2965 19.323 76.4853 20.6078 76.3706 21.8836C76.2559 23.1594 75.8409 24.39 75.1597 25.4748C73.6213 28.0103 70.25 30.3179 64.1391 29.2401V42.5351H73.1084V37.7109C73.1084 37.7109 85.6864 34.4584 85.6864 20.6174C85.6864 7.35565 73.8159 4.27407 68.7021 4.27407C64.8038 4.25508 51.5421 5.19997 51.7131 21.2014Z" fill="#E0E0E0"/>
<path d="M73.2126 46.0012H64.1104V54.5005H73.2126V46.0012Z" fill="#E0E0E0"/>
<path d="M43.6455 52.7863L36.5232 50.8871C36.5232 50.8871 34.923 56.8793 28.6697 55.3219C27.4589 55.0456 26.3646 54.3985 25.539 53.4708C24.7134 52.5431 24.1978 51.381 24.0639 50.1463C23.9395 49.1111 24.0603 48.0611 24.4166 47.0812C24.773 46.1013 25.3548 45.219 26.1151 44.5055C27.8577 42.8341 30.9963 41.7278 35.5783 43.8597L38.3702 33.4137L31.3192 31.5144L30.303 35.313C30.303 35.313 19.7241 35.2275 16.8134 46.1294C14.031 56.5754 22.7344 61.4803 26.7419 62.5486C29.795 63.3653 40.4215 65.407 43.6455 52.7863Z" fill="#EBEBEB"/>
<path d="M31.9505 28.7653L39.1069 30.6761L40.8916 23.9922L33.7352 22.0813L31.9505 28.7653Z" fill="#EBEBEB"/>
<path d="M181.148 132.889L187.079 133.525C187.079 133.525 187.615 128.549 192.801 129.014C193.801 129.087 194.754 129.47 195.527 130.109C196.301 130.748 196.856 131.611 197.117 132.58C197.344 133.39 197.376 134.243 197.211 135.068C197.046 135.893 196.688 136.668 196.167 137.328C194.98 138.881 192.615 140.149 188.693 139.014L187.744 147.717L193.608 148.349L193.945 145.187C193.945 145.187 202.397 143.947 203.375 134.883C204.324 126.213 196.751 123.364 193.404 123.012C190.901 122.732 182.165 122.414 181.148 132.889Z" fill="#EBEBEB"/>
<path d="M193.465 150.605L187.516 149.964L186.918 155.521L192.866 156.162L193.465 150.605Z" fill="#EBEBEB"/>
<path d="M8.31437 168.448L14.544 167.774C14.544 167.774 13.979 162.55 19.4062 161.862C20.4484 161.714 21.5107 161.894 22.4464 162.376C23.382 162.859 24.1448 163.62 24.6292 164.554C25.0451 165.336 25.271 166.204 25.2883 167.09C25.3056 167.975 25.114 168.852 24.7289 169.649C23.86 171.506 21.7138 173.338 17.4357 173.054L18.4185 182.199L24.5912 181.534L24.2351 178.21C24.2351 178.21 32.6346 175.043 31.609 165.518C30.6262 156.406 22.2266 155.172 18.7272 155.547C16.0539 155.837 7.00862 157.475 8.31437 168.448Z" fill="#F5F5F5"/>
<path d="M24.9119 183.9L18.6567 184.574L19.286 190.414L25.5411 189.74L24.9119 183.9Z" fill="#F5F5F5"/>
<path d="M94.9638 28.0626L100.443 26.4625C100.443 26.4625 99.0995 21.8615 103.857 20.3848C104.769 20.0815 105.753 20.0703 106.671 20.3529C107.59 20.6355 108.397 21.1978 108.981 21.9612C109.479 22.5953 109.821 23.3382 109.979 24.1294C110.136 24.9206 110.105 25.7379 109.887 26.5147C109.413 28.3143 107.774 30.3133 103.89 30.7311L106.236 38.7698L111.654 37.1886L110.804 34.2638C110.804 34.2638 117.831 30.0806 115.386 21.7048C113.045 13.6945 105.315 13.932 102.224 14.8294C99.8877 15.5036 92.039 18.4238 94.9638 28.0626Z" fill="#F5F5F5"/>
<path d="M112.334 39.268L106.832 40.8737L108.331 46.0106L113.833 44.4049L112.334 39.268Z" fill="#F5F5F5"/>
<path d="M192.834 107.642L197.264 106.351C197.264 106.351 196.177 102.633 200.037 101.446C200.773 101.201 201.567 101.191 202.309 101.42C203.05 101.648 203.702 102.102 204.173 102.718C204.577 103.23 204.854 103.831 204.982 104.47C205.109 105.11 205.082 105.771 204.904 106.398C204.515 107.851 203.2 109.461 200.066 109.803L201.965 116.298L206.343 115.021L205.654 112.647C205.654 112.647 211.352 109.266 209.353 102.5C207.454 96.0282 201.22 96.2181 198.736 96.9446C196.813 97.5096 190.474 99.86 192.834 107.642Z" fill="#F5F5F5"/>
<path d="M206.864 116.698L202.419 117.995L203.63 122.142L208.074 120.845L206.864 116.698Z" fill="#F5F5F5"/>
<path d="M207.297 214.382C207.297 214.453 160.888 214.505 103.653 214.505C46.4184 214.505 0 214.453 0 214.382C0 214.311 46.3994 214.258 103.653 214.258C160.907 214.258 207.297 214.315 207.297 214.382Z" fill="#263238"/>
<path d="M180.626 44.1591C182.231 34.0241 175.317 24.5068 165.182 22.9016C155.047 21.2964 145.53 28.2111 143.924 38.3461C142.319 48.481 149.234 57.9983 159.369 59.6035C169.504 61.2087 179.021 54.294 180.626 44.1591Z" fill="white"/>
<path d="M180.865 41.2576C180.865 41.2576 180.865 41.1579 180.836 40.9585C180.808 40.7591 180.803 40.4552 180.779 40.0753C180.779 39.8806 180.756 39.6622 180.741 39.4248C180.727 39.1874 180.665 38.95 180.623 38.6509C180.58 38.3517 180.532 38.0668 180.48 37.7439C180.428 37.4211 180.319 37.0934 180.238 36.7326C179.811 34.9957 179.123 33.3339 178.196 31.804C176.979 29.7762 175.381 28.0027 173.491 26.5809L172.674 25.9494C172.394 25.7642 172.095 25.5981 171.805 25.4176C171.516 25.2372 171.221 25.0378 170.903 24.8953L169.953 24.4205L169.479 24.1878L168.942 24.0501L167.902 23.6703C167.546 23.5516 167.18 23.4804 166.815 23.3806C166.447 23.2734 166.072 23.1878 165.694 23.1242C164.923 22.9821 164.142 22.8933 163.358 22.8583C162.959 22.8583 162.56 22.8014 162.152 22.8109L160.932 22.8726C160.728 22.8726 160.519 22.8726 160.315 22.9153L159.697 23.0103C159.289 23.0768 158.871 23.1242 158.458 23.2097C157.622 23.3978 156.799 23.6389 155.994 23.9314C155.168 24.2281 154.363 24.5819 153.586 24.9903C153.197 25.204 152.822 25.4651 152.437 25.6788C152.247 25.7975 152.043 25.9019 151.863 26.0396L151.321 26.4242C149.812 27.5046 148.493 28.8284 147.418 30.3415L146.996 30.9113L146.621 31.5191L146.25 32.1221C146.121 32.3237 146.006 32.5348 145.908 32.7536L145.282 34.0546L144.778 35.4458C143.512 39.225 143.512 43.3139 144.778 47.0931L145.277 48.4654C145.491 48.8975 145.7 49.3343 145.904 49.7664L146.065 50.0893L146.25 50.3931L146.621 51.0057L146.991 51.6134L147.418 52.1832C147.972 52.9372 148.577 53.6527 149.227 54.3247C149.886 54.9629 150.586 55.5577 151.321 56.1052L151.863 56.5088C152.043 56.6465 152.247 56.751 152.433 56.8697C152.822 57.1023 153.197 57.3445 153.586 57.5582C154.363 57.9666 155.168 58.3204 155.994 58.617C156.798 58.9139 157.621 59.1551 158.458 59.3388C158.871 59.4242 159.289 59.4717 159.697 59.5429L160.315 59.6379C160.519 59.6616 160.728 59.6616 160.932 59.6759L162.157 59.7423C162.56 59.7423 162.959 59.7091 163.358 59.6949C164.142 59.6585 164.923 59.568 165.694 59.4242C166.072 59.3623 166.447 59.2782 166.815 59.1726C167.18 59.0729 167.551 58.9969 167.902 58.8782L168.942 58.4983L169.455 58.3131L169.93 58.0805L170.879 57.6057C171.202 57.4632 171.482 57.2543 171.781 57.0881C172.081 56.9219 172.37 56.7367 172.65 56.5516L173.453 55.958C175.34 54.5335 176.938 52.7605 178.158 50.735C179.088 49.2051 179.781 47.5435 180.214 45.8064C180.295 45.4503 180.418 45.1179 180.456 44.795C180.494 44.4721 180.556 44.1683 180.599 43.8881C180.642 43.608 180.694 43.3516 180.718 43.1142C180.741 42.8767 180.746 42.6393 180.756 42.4637C180.778 42.0838 180.797 41.7894 180.813 41.5805C180.813 41.3858 180.841 41.2814 180.841 41.2814C180.841 41.2814 180.841 41.3858 180.841 41.5852C180.841 41.7847 180.841 42.0838 180.808 42.4684C180.808 42.6631 180.808 42.8815 180.779 43.1189C180.751 43.3563 180.713 43.5937 180.675 43.8976C180.637 44.2015 180.589 44.4864 180.542 44.8093C180.494 45.1321 180.385 45.4693 180.309 45.8301C179.887 47.5821 179.202 49.2599 178.277 50.8062C177.06 52.864 175.457 54.668 173.557 56.1195L172.75 56.7272C172.47 56.9124 172.171 57.0834 171.876 57.2685C171.582 57.4537 171.292 57.6484 170.969 57.7956L170.02 58.2704L169.545 58.5031L169.027 58.6977L167.978 59.0823C167.622 59.2011 167.247 59.277 166.877 59.3815C166.506 59.4915 166.128 59.5771 165.746 59.6379C164.963 59.7879 164.169 59.8815 163.372 59.918C162.969 59.918 162.56 59.975 162.152 59.9703L160.918 59.9085C160.709 59.9085 160.5 59.9085 160.291 59.8706L159.669 59.7756C159.251 59.7044 158.828 59.6569 158.41 59.5714C157.565 59.384 156.732 59.1413 155.918 58.8449C155.08 58.5472 154.264 58.1902 153.477 57.7766C153.078 57.5629 152.703 57.3018 152.309 57.0834C152.119 56.9599 151.915 56.8554 151.73 56.7177L151.179 56.3094C150.432 55.7556 149.723 55.1528 149.057 54.5051C148.397 53.8263 147.784 53.1028 147.224 52.3399L146.792 51.7654L146.412 51.1481L146.037 50.5308L145.847 50.2175L145.69 49.8898C145.476 49.453 145.267 49.0162 145.054 48.5746C144.84 48.133 144.717 47.6249 144.546 47.1881C143.254 43.3594 143.254 39.2128 144.546 35.3841C144.717 34.9093 144.888 34.4345 145.054 33.9976L145.69 32.6776C145.79 32.4576 145.906 32.245 146.037 32.0414L146.417 31.4241L146.792 30.8068L147.224 30.2323C147.786 29.4705 148.398 28.7471 149.057 28.0671C149.722 27.4196 150.431 26.8183 151.179 26.2675L151.73 25.8545C151.915 25.7168 152.119 25.6123 152.309 25.4888C152.703 25.2562 153.078 25.014 153.477 24.7956C154.265 24.3829 155.08 24.0259 155.918 23.7273C156.732 23.4309 157.565 23.1883 158.41 23.0008C158.828 22.9153 159.251 22.8678 159.669 22.8014L160.291 22.7064C160.5 22.6779 160.709 22.6779 160.918 22.6637L162.152 22.6067C162.56 22.6067 162.969 22.6399 163.372 22.6542C164.169 22.6933 164.962 22.7869 165.746 22.9343C166.128 22.9972 166.506 23.0844 166.877 23.1955C167.247 23.2952 167.617 23.3711 167.978 23.4899L169.027 23.8792L169.545 24.0691L170.02 24.3018L170.969 24.7766C171.292 24.9238 171.577 25.1327 171.881 25.3084C172.185 25.4841 172.475 25.6598 172.755 25.8497L173.562 26.4527C175.462 27.9029 177.063 29.7072 178.277 31.766C179.205 33.3113 179.892 34.9893 180.314 36.7421C180.39 37.1029 180.509 37.4353 180.547 37.7629C180.585 38.0906 180.637 38.3897 180.68 38.6746C180.722 38.9595 180.765 39.2159 180.784 39.4533C180.803 39.6907 180.784 39.9281 180.813 40.1038C180.813 40.4884 180.836 40.7828 180.846 40.9917C180.855 41.2006 180.865 41.2576 180.865 41.2576Z" fill="#263238"/>
<path d="M155.675 38.0715H159.203C159.203 38.0715 159.203 35.1087 162.284 35.0564C162.878 35.0346 163.463 35.1986 163.958 35.5255C164.454 35.8523 164.835 36.3258 165.048 36.8797C165.234 37.3407 165.309 37.8392 165.265 38.3345C165.221 38.8297 165.061 39.3075 164.796 39.7286C164.198 40.7163 162.897 41.6279 160.523 41.1958V46.3666H164.013V44.4674C164.013 44.4674 168.908 43.2043 168.908 37.8199C168.908 32.6586 164.279 31.462 162.299 31.462C160.77 31.481 155.608 31.8466 155.675 38.0715Z" fill="#92E3A9"/>
<path d="M164.041 47.7296H160.499V51.0391H164.041V47.7296Z" fill="#92E3A9"/>
<path d="M153.533 66.048C155.138 66.048 156.439 64.747 156.439 63.1421C156.439 61.5372 155.138 60.2362 153.533 60.2362C151.928 60.2362 150.627 61.5372 150.627 63.1421C150.627 64.747 151.928 66.048 153.533 66.048Z" fill="white"/>
<path d="M156.44 63.1418C156.416 63.1418 156.44 62.8854 156.302 62.4438C156.128 61.8256 155.754 61.2827 155.238 60.9007C154.822 60.5885 154.327 60.3984 153.809 60.3517C153.291 60.305 152.77 60.4035 152.305 60.6361C151.839 60.8688 151.448 61.2265 151.174 61.669C150.901 62.1116 150.756 62.6216 150.756 63.1418C150.756 63.6621 150.901 64.1721 151.174 64.6146C151.448 65.0572 151.839 65.4148 152.305 65.6475C152.77 65.8802 153.291 65.9787 153.809 65.9319C154.327 65.8852 154.822 65.6951 155.238 65.383C155.754 65.0009 156.128 64.458 156.302 63.8398C156.425 63.403 156.416 63.1418 156.44 63.1418C156.463 63.1418 156.44 63.2083 156.44 63.327C156.441 63.5075 156.422 63.6875 156.383 63.8635C156.236 64.521 155.865 65.1069 155.333 65.5207C155.017 65.7703 154.654 65.9535 154.265 66.0593C153.876 66.1651 153.47 66.1913 153.071 66.1363C152.672 66.0813 152.288 65.9463 151.943 65.7394C151.597 65.5324 151.297 65.2577 151.06 64.9319C150.674 64.4147 150.466 63.7868 150.466 63.1418C150.466 62.4968 150.674 61.869 151.06 61.3517C151.296 61.0288 151.595 60.7567 151.939 60.5515C152.282 60.3464 152.664 60.2123 153.06 60.1574C153.456 60.1025 153.86 60.1278 154.246 60.2318C154.633 60.3358 154.994 60.5165 155.309 60.763C155.844 61.1752 156.217 61.7615 156.364 62.4201C156.403 62.5961 156.422 62.7762 156.421 62.9566C156.443 63.0801 156.449 63.1418 156.44 63.1418Z" fill="#263238"/>
<path d="M157.304 127.884C162.179 144.3 163.226 161.616 160.362 178.5C160.001 180.579 160.917 182.716 163.097 183.319C164.996 183.837 167.555 182.678 167.916 180.579C171.109 162.328 170.065 143.587 164.863 125.804C163.439 120.975 155.875 123.031 157.304 127.884Z" fill="#263238"/>
<path d="M177.84 107.946C175.613 100.302 169.473 94.0814 162.171 92.0587C163.642 86.5935 161.316 80.2784 158.424 75.4875C156.95 73.1144 154.993 71.0772 152.682 69.5077C150.371 67.9381 147.755 66.8711 145.006 66.3757C139.498 65.4641 136.084 65.9579 130.761 67.6672C127.575 61.5658 121.455 58.2563 114.916 57.4728C108.378 56.6894 101.337 60.3692 98.6871 66.7508C97.7375 60.0416 90.1783 56.0674 83.9345 57.5773C77.6906 59.0872 72.9566 64.6331 70.0317 70.6681L153.875 160.884C161.306 163.847 170.494 160.765 174.934 153.8C179.373 146.834 178.671 136.654 173.343 130.41C178.305 124.403 180.066 115.596 177.84 107.946Z" fill="#92E3A9"/>
<path d="M108.404 171.471L102.3 170.813L97.6914 213.584L103.795 214.242L108.404 171.471Z" fill="#263238"/>
<path d="M118.075 214.238L124.179 213.58L119.571 170.809L113.467 171.467L118.075 214.238Z" fill="#263238"/>
<path d="M40.8256 82.0827C43.3279 75.0838 47.9099 69.7753 54.9088 66.8884C61.9076 64.0015 69.9368 63.9351 77.458 65.2408C80.5396 65.7869 83.7066 66.6178 86.0855 68.6548C88.4643 70.6918 89.7938 74.2481 88.4263 77.0638C91.7052 75.2127 95.4089 74.2455 99.1742 74.2569C102.939 74.2684 106.637 75.2581 109.905 77.1292C113.172 79.0002 115.898 81.6882 117.813 84.9297C119.729 88.1713 120.77 91.855 120.833 95.6198C127.627 95.0738 134.759 96.5694 140.148 100.748C145.538 104.926 148.876 111.982 147.651 118.687C152.081 118.302 156.354 121.16 158.728 124.94C161.102 128.719 161.862 133.278 162.18 137.727C162.375 140.471 162.399 143.301 161.482 145.894C161.036 147.157 160.371 148.349 160.058 149.659C159.706 151.24 159.925 152.883 159.972 154.507C160.086 158.274 159.267 162.011 157.589 165.386C155.911 168.761 153.425 171.669 150.352 173.853C147.28 176.036 143.716 177.426 139.977 177.901C136.238 178.375 132.439 177.919 128.919 176.572C121.137 184.611 107.191 185.593 98.3406 178.77C92.5858 180.703 86.4701 182.094 80.4636 181.32C77.3637 180.936 74.3834 179.886 71.7269 178.243C69.3196 176.724 67.9284 173.785 65.6777 172.393C63.4271 171.002 60.7443 172.227 58.1376 172.189C55.0757 172.154 52.065 171.4 49.3486 169.986C46.7814 168.605 44.5317 166.702 42.7441 164.399C40.9565 162.096 39.6706 159.445 38.9691 156.615C38.6842 155.476 38.4943 154.241 37.7535 153.329C37.0935 152.479 36.0964 151.976 35.1658 151.43C32.2536 149.731 29.7494 147.415 27.8296 144.643C25.9098 141.872 24.6211 138.713 24.0543 135.39C23.4875 132.067 23.6564 128.659 24.5491 125.408C25.4418 122.157 27.0365 119.142 29.221 116.574C29.221 116.574 24.8289 105.311 28.9599 95.2067C33.0908 85.1025 40.8256 82.0827 40.8256 82.0827Z" fill="#92E3A9"/>
<g opacity="0.3">
<path d="M174.872 145.751C173.138 148.399 170.741 150.546 167.92 151.98C165.098 153.414 161.951 154.084 158.79 153.923C157.842 156.88 156.301 159.612 154.259 161.951C152.218 164.291 149.72 166.189 146.919 167.529C144.118 168.868 141.073 169.621 137.97 169.742C134.867 169.862 131.773 169.348 128.876 168.229C121.094 176.263 107.148 177.251 98.2977 170.423C92.5429 172.355 86.4272 173.747 80.4208 172.973C77.3208 172.589 74.3405 171.539 71.6841 169.896C69.2815 168.376 67.8855 165.437 65.6349 164.046C63.3842 162.655 60.7062 163.88 58.0947 163.842C55.0329 163.806 52.0223 163.052 49.3058 161.639C46.7391 160.258 44.4897 158.356 42.7021 156.054C40.9145 153.752 39.6283 151.101 38.9263 148.273C38.6414 147.128 38.4514 145.898 37.7107 144.982C37.0555 144.132 36.0536 143.629 35.1229 143.083C32.2828 141.397 29.8314 139.129 27.9296 136.428C26.0279 133.728 24.7187 130.656 24.0881 127.414C23.6001 130.04 23.5744 132.732 24.0122 135.367C24.6018 138.682 25.8997 141.831 27.8171 144.599C29.7346 147.367 32.2265 149.689 35.1229 151.406C36.0726 151.948 37.0555 152.451 37.7107 153.306C38.4324 154.255 38.6604 155.447 38.9263 156.591C39.6277 159.421 40.9136 162.072 42.7012 164.375C44.4888 166.678 46.7386 168.581 49.3058 169.962C52.025 171.385 55.0403 172.15 58.109 172.194C60.7205 172.227 63.332 170.978 65.6491 172.398C67.9662 173.818 69.2957 176.728 71.6983 178.248C74.3541 179.892 77.3349 180.94 80.435 181.32C86.4557 182.094 92.5571 180.703 98.312 178.77C107.163 185.612 121.103 184.611 128.89 176.577C131.787 177.695 134.881 178.21 137.983 178.09C141.086 177.97 144.131 177.217 146.932 175.878C149.733 174.539 152.231 172.641 154.272 170.302C156.314 167.963 157.856 165.231 158.804 162.275C161.965 162.43 165.111 161.754 167.93 160.315C170.749 158.877 173.142 156.725 174.872 154.075C177.588 149.835 178.39 144.403 177.398 139.393C176.956 141.651 176.1 143.806 174.872 145.751Z" fill="black"/>
</g>
<path d="M73.5597 131.948C73.4893 131.868 73.4258 131.783 73.3698 131.692C73.2511 131.526 73.0992 131.26 72.8617 130.951C71.2605 128.727 69.1419 126.927 66.6891 125.705C63.1024 123.871 58.9494 123.482 55.0845 124.617C53.5157 125.063 52.0201 125.735 50.6449 126.611C49.7158 127.2 48.8474 127.879 48.0524 128.639C47.7628 128.9 47.5776 129.114 47.4162 129.27C47.3496 129.351 47.273 129.423 47.1882 129.484C47.2416 129.393 47.3071 129.31 47.3829 129.237C47.5206 129.085 47.7058 128.843 47.9859 128.568C48.763 127.777 49.6226 127.072 50.55 126.464C51.9282 125.557 53.4342 124.861 55.018 124.399C57.764 123.609 60.6699 123.559 63.4415 124.253C66.2131 124.948 68.752 126.363 70.801 128.354C71.6032 129.121 72.3182 129.975 72.933 130.899C73.1609 131.217 73.2938 131.493 73.4078 131.668C73.4682 131.756 73.5191 131.85 73.5597 131.948Z" fill="#263238"/>
<path d="M80.1647 160.067C80.1573 160.012 80.1573 159.956 80.1647 159.901C80.1647 159.777 80.1647 159.616 80.1932 159.426C80.2217 159.236 80.2359 158.951 80.2596 158.624C80.2834 158.296 80.3688 157.945 80.4306 157.541C80.6219 156.554 80.8853 155.583 81.2188 154.635C82.8863 150.08 86.1376 146.278 90.3781 143.923C92.1844 142.941 94.1478 142.281 96.1804 141.972C98.3608 141.639 100.581 141.67 102.752 142.062C106.976 142.811 110.839 144.92 113.753 148.068C116.134 150.634 117.653 153.879 118.098 157.351C118.375 159.685 118.048 162.051 117.148 164.222C116.826 165.016 116.402 165.765 115.885 166.449C115.906 166.396 115.933 166.347 115.966 166.301C116.033 166.197 116.118 166.055 116.223 165.879C117.722 163.311 118.326 160.318 117.941 157.37C117.477 153.943 115.959 150.746 113.597 148.22C110.706 145.109 106.881 143.024 102.7 142.28C100.556 141.896 98.3632 141.864 96.2088 142.185C94.2023 142.486 92.2622 143.128 90.473 144.085C87.4459 145.744 84.9029 148.162 83.0943 151.102C82.3956 152.223 81.8087 153.409 81.3422 154.645C80.9982 155.583 80.7221 156.544 80.516 157.522C80.4448 157.926 80.3783 158.282 80.3214 158.595L80.2359 159.393L80.1789 159.868C80.1835 159.934 80.1787 160.002 80.1647 160.067Z" fill="#263238"/>
<path d="M141.734 165.499C141.672 165.546 141.603 165.584 141.53 165.613C141.33 165.718 141.124 165.81 140.913 165.888C140.139 166.192 139.33 166.396 138.506 166.496C137.277 166.65 136.031 166.594 134.821 166.33C133.328 166.024 131.923 165.388 130.708 164.468C129.493 163.549 128.499 162.37 127.798 161.017C127.218 159.922 126.827 158.737 126.64 157.513C126.51 156.691 126.488 155.856 126.573 155.029C126.592 154.804 126.624 154.581 126.668 154.36C126.675 154.281 126.695 154.204 126.725 154.132C126.616 155.249 126.646 156.375 126.815 157.484C127.017 158.684 127.418 159.841 128.002 160.908C128.697 162.224 129.671 163.372 130.858 164.27C132.044 165.169 133.413 165.796 134.868 166.107C136.053 166.378 137.274 166.45 138.482 166.32C139.596 166.185 140.689 165.909 141.734 165.499Z" fill="#263238"/>
<path d="M69.6282 73.6404C69.6287 73.4361 69.651 73.2323 69.6946 73.0327C69.786 72.4787 69.908 71.9302 70.0603 71.3898C70.276 70.5819 70.544 69.7888 70.8627 69.0157C71.6411 67.1272 72.6991 65.3665 74.0013 63.7927C74.5297 63.1504 75.0991 62.543 75.7059 61.9741C76.1107 61.5877 76.5371 61.2247 76.9831 60.8868C77.142 60.7552 77.312 60.6376 77.4912 60.5354C77.5197 60.5734 76.8264 61.1099 75.8293 62.1023C75.2432 62.6805 74.6915 63.2925 74.1769 63.9351C72.9117 65.5062 71.867 67.2427 71.0716 69.0964C70.7484 69.8546 70.4663 70.6297 70.2264 71.4183C69.8181 72.7858 69.6709 73.6499 69.6282 73.6404Z" fill="#263238"/>
<path d="M51.0774 80.915C51.0774 80.9672 50.2227 80.7203 48.8315 80.5731C48.016 80.4907 47.1955 80.4685 46.3767 80.5066C45.3759 80.5647 44.3817 80.706 43.4043 80.9292C42.4291 81.1631 41.4759 81.4809 40.5554 81.8788C39.8067 82.2105 39.0831 82.5961 38.3902 83.0327C37.2127 83.7876 36.5669 84.3859 36.5337 84.3479C36.6647 84.1898 36.811 84.045 36.9705 83.9158C37.1468 83.7474 37.3323 83.5889 37.5261 83.441C37.7492 83.2748 38.0009 83.0659 38.2953 82.8807C38.9815 82.4112 39.7076 82.0029 40.4652 81.6604C42.3222 80.8133 44.3275 80.339 46.3672 80.2645C47.197 80.2355 48.0277 80.2768 48.8505 80.3879C49.2019 80.4211 49.5153 80.4924 49.8002 80.5446C50.0376 80.5852 50.2724 80.6407 50.5029 80.7108C50.7002 80.7614 50.8925 80.8297 51.0774 80.915Z" fill="#263238"/>
<path d="M51.0768 120.301C51.0768 120.301 51.0198 120.368 50.8916 120.477C50.7634 120.586 50.5782 120.743 50.3171 120.918C49.5957 121.441 48.8224 121.888 48.0095 122.253C45.3055 123.478 42.2853 123.825 39.3739 123.244C36.4626 122.663 33.8067 121.184 31.7801 119.014C31.1674 118.368 30.6232 117.66 30.1562 116.901C30.0245 116.698 29.9041 116.487 29.7954 116.27C29.7497 116.199 29.7145 116.123 29.6909 116.042C29.6909 116.042 29.8856 116.332 30.237 116.849C31.4712 118.666 33.0928 120.187 34.9852 121.303C37.7502 122.959 41.0034 123.607 44.1919 123.136C45.4853 122.954 46.7485 122.599 47.9477 122.082C48.7575 121.733 49.5359 121.315 50.2744 120.833C50.7872 120.496 51.0626 120.287 51.0768 120.301Z" fill="#263238"/>
<path d="M39.4293 142.551C39.472 142.551 39.1016 143.396 38.7123 144.797C38.4851 145.617 38.3122 146.452 38.1947 147.295C38.059 148.326 37.9987 149.365 38.0143 150.405C38.0438 151.445 38.1501 152.481 38.3324 153.505C38.4864 154.343 38.6958 155.169 38.9592 155.979C39.4103 157.361 39.8186 158.168 39.7759 158.187C39.6502 158.015 39.5465 157.829 39.4673 157.631C39.3515 157.41 39.2469 157.184 39.1539 156.952C39.0447 156.687 38.907 156.383 38.793 156.031C38.5046 155.221 38.2761 154.391 38.1093 153.548C37.9111 152.513 37.7968 151.463 37.7674 150.409C37.7496 149.356 37.8179 148.303 37.9716 147.261C38.1012 146.412 38.2916 145.572 38.5414 144.75C38.6411 144.393 38.7645 144.085 38.8642 143.8C38.9459 143.564 39.0394 143.333 39.1444 143.107C39.2226 142.913 39.3179 142.727 39.4293 142.551Z" fill="#263238"/>
<path d="M70.2171 176.752C70.1422 176.676 70.0739 176.593 70.0129 176.506C69.8895 176.335 69.6996 176.088 69.4764 175.76C68.8303 174.832 68.2374 173.868 67.7006 172.873C66.8963 171.399 66.2424 169.848 65.7491 168.244C65.465 167.292 65.2445 166.323 65.0891 165.343C64.9349 164.288 64.8587 163.223 64.8611 162.156C64.8959 158.409 65.7449 154.713 67.3492 151.326C67.8308 150.303 68.3845 149.316 69.0063 148.372C69.22 148.035 69.4147 147.793 69.5334 147.618C69.5924 147.528 69.6609 147.445 69.7375 147.371C69.6905 147.466 69.6365 147.558 69.5761 147.646C69.4669 147.826 69.2912 148.083 69.1013 148.425C68.5142 149.384 67.9862 150.378 67.5201 151.402C65.9816 154.782 65.1727 158.448 65.146 162.161C65.1415 163.214 65.2129 164.266 65.3597 165.309C65.5123 166.279 65.7264 167.239 66.0007 168.182C66.4838 169.776 67.1198 171.32 67.9 172.792C68.5647 174.055 69.1725 175.034 69.6046 175.703L70.1032 176.477C70.1517 176.564 70.1899 176.657 70.2171 176.752Z" fill="#263238"/>
<path d="M65.4408 156.663C65.2783 156.762 65.0975 156.829 64.909 156.857C64.3966 156.957 63.8687 156.946 63.3611 156.824C62.6176 156.64 61.9021 156.358 61.2339 155.984C60.4112 155.539 59.6432 155.001 58.9453 154.379C57.6742 153.244 56.6537 151.856 55.9491 150.305C55.7447 149.842 55.5718 149.366 55.4316 148.88C55.3704 148.702 55.3321 148.517 55.3176 148.329C55.3604 148.329 55.5503 149.099 56.1106 150.252C56.8471 151.753 57.8641 153.099 59.1067 154.217C59.791 154.829 60.541 155.362 61.3431 155.808C61.9905 156.184 62.6829 156.476 63.4038 156.677C64.073 156.845 64.774 156.84 65.4408 156.663Z" fill="#263238"/>
<path d="M99.8219 179.539C99.6638 179.485 99.5137 179.41 99.3755 179.316C98.9913 179.09 98.6189 178.844 98.2597 178.58C97.0706 177.715 95.9967 176.702 95.0642 175.565C94.1346 174.422 93.3573 173.162 92.7518 171.819C92.5727 171.414 92.4142 171 92.277 170.58C92.214 170.427 92.1693 170.268 92.144 170.105C92.1868 170.105 92.4337 170.736 92.9275 171.738C94.2086 174.361 96.0771 176.654 98.3879 178.438C99.2568 179.131 99.8504 179.501 99.8219 179.539Z" fill="#263238"/>
<path d="M131.687 164.739C131.727 164.904 131.744 165.073 131.74 165.243C131.74 165.565 131.74 166.031 131.74 166.61C131.745 168.126 131.585 169.639 131.265 171.121C130.831 173.059 129.964 174.874 128.729 176.429C128.633 176.568 128.52 176.694 128.392 176.804C128.354 176.776 128.791 176.206 129.375 175.219C130.131 173.924 130.688 172.524 131.027 171.064C131.334 169.598 131.509 168.107 131.55 166.61C131.563 165.984 131.609 165.36 131.687 164.739Z" fill="#263238"/>
<path d="M151.787 140.191C151.866 140.215 151.941 140.25 152.01 140.296C152.147 140.372 152.361 140.481 152.622 140.647C153.356 141.116 154.034 141.669 154.64 142.295C155.537 143.23 156.287 144.296 156.862 145.457C157.201 146.141 157.494 146.847 157.741 147.57C157.995 148.349 158.207 149.142 158.377 149.944C158.906 152.76 159.101 155.629 158.956 158.491C158.923 159.588 158.866 160.476 158.828 161.088C158.828 161.368 158.79 161.601 158.776 161.791C158.777 161.873 158.764 161.955 158.738 162.033C158.732 161.951 158.732 161.868 158.738 161.786C158.738 161.601 158.738 161.364 158.738 161.083C158.738 160.433 158.771 159.554 158.795 158.491C158.88 155.643 158.662 152.794 158.144 149.992C157.975 149.201 157.766 148.42 157.518 147.651C157.28 146.937 156.996 146.239 156.668 145.561C156.107 144.417 155.386 143.359 154.526 142.418C153.935 141.793 153.283 141.228 152.58 140.733C152.081 140.381 151.777 140.206 151.787 140.191Z" fill="#263238"/>
<path d="M146.236 145.452C146.381 145.299 146.54 145.159 146.711 145.034C147.038 144.783 147.499 144.403 148.054 143.923C149.502 142.668 150.832 141.284 152.029 139.788C153.22 138.289 154.271 136.684 155.167 134.992C155.514 134.341 155.78 133.81 155.951 133.434C156.032 133.237 156.132 133.048 156.25 132.869C156.203 133.079 156.133 133.283 156.041 133.477C155.894 133.862 155.652 134.427 155.324 135.073C153.598 138.537 151.159 141.599 148.168 144.056C147.594 144.531 147.114 144.882 146.772 145.11C146.607 145.244 146.427 145.358 146.236 145.452Z" fill="#263238"/>
<path d="M143.377 80.606C143.377 80.606 143.42 80.6629 143.482 80.7816C143.544 80.9003 143.634 81.0808 143.729 81.3182C144.014 81.9897 144.242 82.6837 144.412 83.3931C144.99 85.7419 144.974 88.1974 144.365 90.5383C143.757 92.8792 142.575 95.0318 140.927 96.8021C140.434 97.3377 139.897 97.8317 139.322 98.2788C139.123 98.4449 138.952 98.5494 138.848 98.6301C138.795 98.6737 138.735 98.7089 138.672 98.7346C138.856 98.5444 139.055 98.3682 139.265 98.2075C139.81 97.7363 140.323 97.2287 140.799 96.6881C142.39 94.9137 143.533 92.7845 144.132 90.4782C144.732 88.1719 144.771 85.7556 144.246 83.4311C144.094 82.7267 143.894 82.0334 143.648 81.3562C143.543 81.1119 143.452 80.8613 143.377 80.606Z" fill="#263238"/>
<path d="M151.786 85.3021C151.786 85.3448 151.311 85.3353 150.566 85.4445C148.613 85.7264 146.809 86.6463 145.433 88.0608C144.911 88.6021 144.64 89.0104 144.607 88.9677C144.777 88.5873 145.014 88.24 145.305 87.9421C146.641 86.4151 148.509 85.4556 150.528 85.2593C150.947 85.1997 151.373 85.2141 151.786 85.3021Z" fill="#263238"/>
<path d="M167.109 136.962C167.128 136.847 167.158 136.734 167.199 136.625C167.261 136.407 167.38 136.093 167.489 135.675C168.338 132.763 168.589 129.708 168.225 126.697C167.835 123.354 166.644 120.155 164.754 117.371C164.147 116.497 163.479 115.668 162.755 114.888C161.52 113.57 160.116 112.421 158.581 111.469C157.546 110.827 156.454 110.282 155.319 109.84C154.921 109.669 154.598 109.584 154.37 109.499C154.259 109.464 154.151 109.421 154.047 109.37C154.163 109.385 154.278 109.412 154.389 109.451C154.602 109.522 154.935 109.594 155.338 109.75C156.498 110.158 157.611 110.685 158.662 111.322C160.234 112.26 161.671 113.407 162.935 114.731C163.671 115.516 164.35 116.352 164.968 117.233C165.618 118.191 166.191 119.2 166.682 120.248C167.61 122.283 168.21 124.451 168.462 126.673C168.679 128.483 168.665 130.313 168.42 132.119C168.263 133.335 167.994 134.533 167.617 135.699C167.494 136.117 167.356 136.426 167.28 136.649C167.229 136.756 167.172 136.861 167.109 136.962Z" fill="#263238"/>
<path d="M167.075 106.564C167.041 106.971 166.943 107.37 166.786 107.747C166.46 108.673 166.002 109.548 165.428 110.344C164.854 111.143 164.165 111.852 163.381 112.447C163.073 112.714 162.723 112.928 162.346 113.084C163.428 112.252 164.396 111.281 165.224 110.197C165.988 109.067 166.61 107.847 167.075 106.564Z" fill="#263238"/>
<path d="M117.186 67.667C117.266 67.8183 117.33 67.9774 117.376 68.1418C117.446 68.3359 117.503 68.5341 117.547 68.7353C117.604 68.9727 117.68 69.2386 117.728 69.5378C117.854 70.2418 117.925 70.9546 117.941 71.6697C117.949 72.5477 117.881 73.4246 117.737 74.2907C117.583 75.1534 117.351 76.0004 117.044 76.8215C116.792 77.4919 116.484 78.1399 116.123 78.7588C115.98 79.0247 115.819 79.2336 115.686 79.4568C115.576 79.6303 115.456 79.7968 115.325 79.9553C115.224 80.1013 115.108 80.2365 114.979 80.3589C114.936 80.3304 115.401 79.7322 115.971 78.6733C116.304 78.0524 116.591 77.4081 116.83 76.7455C117.119 75.9324 117.342 75.0972 117.495 74.248C117.636 73.3973 117.709 72.5368 117.714 71.6745C117.71 70.9688 117.656 70.2643 117.552 69.5663C117.372 68.3935 117.139 67.6812 117.186 67.667Z" fill="#263238"/>
<g opacity="0.3">
<path d="M117.799 152.389C118.226 151.326 118.354 149.801 117.324 149.346C116.607 149.032 115.805 149.469 115.149 149.896C113.089 151.259 112.486 152.166 110.444 153.486C108.991 154.436 106.845 155.457 105.268 154.735C103.516 153.937 103.493 151.482 102.472 149.854C102.34 149.583 102.139 149.352 101.889 149.185C101.638 149.018 101.348 148.921 101.047 148.904C100.699 148.94 100.37 149.077 100.099 149.298C99.828 149.519 99.6278 149.815 99.523 150.148C99.4957 150.837 99.5322 151.527 99.6322 152.209C99.7316 153.733 99.6999 155.263 99.5373 156.781C99.4512 157.194 99.3894 157.611 99.3521 158.03C97.657 157.911 95.9191 157.892 94.3855 157.797C94.1956 157.76 93.9998 157.767 93.8129 157.817C93.6261 157.867 93.4533 157.96 93.3076 158.087C93.1243 158.348 93.0189 158.656 93.0037 158.975C92.9278 159.526 92.8755 160.081 92.8423 160.642C84.9223 160.68 77.4439 160.233 70.4403 156.368C62.9049 152.228 59.2963 145.538 59.2963 136.193C59.2963 136.193 59.3342 133.392 55.322 133.344C50.8919 133.282 50.9584 138.206 50.9584 138.206C50.137 148.325 56.8272 157.983 65.6019 163.092C74.1486 168.077 84.3715 169.402 94.2952 169.44C94.5002 169.697 94.7514 169.912 95.036 170.076C95.6671 170.352 96.3652 170.438 97.0444 170.323C98.8622 170.141 100.64 169.676 102.315 168.946C102.958 169.48 103.741 169.818 104.57 169.92C106.583 170.344 108.653 170.42 110.691 170.143C112.068 169.943 114.257 169.117 114.665 167.769C114.734 167.343 114.844 166.925 114.993 166.52V166.491C115.152 166.325 115.302 166.151 115.444 165.969L115.705 165.722C116.655 164.796 116.882 161.924 115.871 161.026C116.023 160.831 116.163 160.627 116.289 160.414L115.995 160.798C117.125 159.108 116.944 157.631 115.444 156.145L115.501 156.06L115.429 156.136C116.583 154.445 117.082 154.189 117.799 152.389Z" fill="black"/>
</g>
<path d="M59.2867 133.914C59.2867 143.258 62.8953 149.948 70.4307 154.089C77.9661 158.229 86.057 158.429 94.6465 158.324C94.7668 161.265 94.8871 164.207 95.0074 167.151C84.851 167.175 74.3575 165.907 65.5685 160.798C56.7796 155.689 50.1274 146.036 50.9441 135.918C50.9441 135.918 50.8776 130.994 55.3077 131.055C59.3247 131.112 59.2867 133.914 59.2867 133.914Z" fill="#263238"/>
<path d="M117.31 147.029C116.593 146.72 115.79 147.152 115.135 147.584C113.074 148.947 112.471 149.849 110.43 151.174C108.977 152.123 106.831 153.144 105.254 152.423C103.502 151.625 103.478 149.165 102.457 147.537C102.326 147.266 102.125 147.035 101.875 146.868C101.624 146.701 101.334 146.604 101.033 146.587C100.685 146.621 100.354 146.757 100.083 146.979C99.8117 147.2 99.612 147.497 99.5088 147.831C99.4815 148.518 99.518 149.207 99.618 149.887C99.7174 151.413 99.6856 152.944 99.523 154.464C99.3426 156.017 99.0102 158.871 99.8839 160.162C100.27 162.071 100.909 163.92 101.783 165.661C102.035 166.183 101.251 165.779 101.717 166.135C102.182 166.491 102.695 167.303 104.566 167.622C106.578 168.042 108.648 168.117 110.686 167.845C112.063 167.645 114.252 166.814 114.66 165.471C114.73 165.045 114.839 164.627 114.988 164.222C115.192 163.924 115.438 163.656 115.719 163.429C116.669 162.479 116.906 159.488 115.828 158.681C117.144 156.881 117.011 155.328 115.42 153.776C116.588 152.104 117.087 151.853 117.794 150.048C118.226 149.013 118.369 147.503 117.31 147.029Z" fill="white"/>
<path d="M103.706 157.071C103.364 157.365 103.127 156.259 102.709 156.164C100.135 155.604 96.9587 155.656 94.3757 155.499C94.1858 155.461 93.9897 155.467 93.8027 155.518C93.6157 155.568 93.4429 155.661 93.2978 155.789C93.1145 156.05 93.0091 156.358 92.9939 156.677C92.6427 159.279 92.723 161.921 93.2313 164.497C93.4925 165.803 93.9673 167.213 95.0262 167.783C95.6561 168.063 96.3555 168.149 97.0347 168.03C100.936 167.61 104.599 165.945 107.481 163.282L103.706 157.071Z" fill="white"/>
<path d="M101.749 166.368C101.633 166.253 101.533 166.124 101.45 165.983C101.338 165.832 101.236 165.674 101.146 165.508C101.017 165.291 100.899 165.065 100.795 164.834C100.178 163.503 99.741 162.097 99.4938 160.651C99.2269 159.211 99.1376 157.744 99.2279 156.283C99.2421 156.03 99.2691 155.778 99.3087 155.528C99.3298 155.338 99.3615 155.149 99.4036 154.963C99.4224 154.798 99.4672 154.638 99.5366 154.488C99.5793 154.488 99.4369 155.176 99.4036 156.287C99.3642 157.734 99.4756 159.18 99.736 160.604C99.9873 162.029 100.395 163.422 100.952 164.758C101.384 165.774 101.778 166.339 101.749 166.368Z" fill="#263238"/>
<path d="M113.976 160.561C113.934 160.499 114.551 160.062 115.183 159.397C115.814 158.733 116.237 158.106 116.298 158.139C116.109 158.688 115.782 159.178 115.349 159.564C114.981 160.004 114.509 160.347 113.976 160.561Z" fill="#263238"/>
<path d="M113.621 165.414C113.578 165.352 114.195 164.915 114.827 164.25C115.458 163.586 115.881 162.959 115.943 162.997C115.496 164.063 114.668 164.924 113.621 165.414Z" fill="#263238"/>
<path d="M113.145 156.145C113.107 156.083 113.725 155.647 114.356 154.982C114.988 154.317 115.41 153.69 115.472 153.724C115.283 154.272 114.956 154.763 114.522 155.148C114.154 155.59 113.681 155.933 113.145 156.145Z" fill="#263238"/>
<path d="M93.3361 109.437C93.1889 110.534 89.3476 110.861 85.079 112.362C80.8056 113.763 77.5246 115.823 76.7459 115.04C76.3898 114.66 76.7934 113.568 78.0089 112.272C79.6527 110.646 81.6453 109.416 83.8354 108.676C86.0255 107.935 88.3556 107.704 90.6486 107.998C92.4007 108.302 93.3883 108.919 93.3361 109.437Z" fill="#263238"/>
<path d="M134.374 91.7455C133.543 92.5954 130.381 91.6268 126.559 91.5033C122.76 91.2707 119.484 91.9402 118.758 91.0285C118.439 90.5822 118.967 89.7228 120.4 88.9298C122.378 87.9429 124.581 87.4972 126.787 87.6383C128.977 87.7102 131.108 88.3659 132.959 89.5376C134.317 90.4255 134.745 91.3277 134.374 91.7455Z" fill="#263238"/>
<path d="M135.272 108.274C141.502 110.71 144.465 118.031 141.886 124.627C139.308 131.222 132.172 134.598 125.937 132.162C119.703 129.726 116.745 122.404 119.318 115.809C121.892 109.214 129.038 105.838 135.272 108.274Z" fill="white"/>
<path d="M135.495 107.699C141.725 110.135 144.992 116.721 142.755 122.419C140.519 128.117 133.677 130.747 127.447 128.311C121.217 125.875 117.951 119.29 120.187 113.592C122.423 107.894 129.261 105.268 135.495 107.699Z" fill="#263238"/>
<path d="M97.6616 116.716C102.728 121.085 103.089 128.976 98.464 134.342C93.8393 139.707 85.981 140.514 80.8957 136.141C75.8104 131.768 75.4685 123.881 80.0933 118.516C84.718 113.15 92.5953 112.367 97.6616 116.716Z" fill="white"/>
<path d="M98.0651 116.251C103.131 120.619 104.005 127.912 100.017 132.537C96.0282 137.162 88.6874 137.371 83.6211 133.012C78.5548 128.653 77.6764 121.35 81.6648 116.726C85.6533 112.101 92.9941 111.892 98.0651 116.251Z" fill="#263238"/>
<g opacity="0.3">
<path d="M110.392 135.533C109.029 136.483 109.148 137.808 109.167 139.469C109.171 140.194 109.423 140.896 109.879 141.459C110.107 141.776 110.407 142.035 110.755 142.213C111.102 142.391 111.487 142.484 111.878 142.485C113.184 142.437 114.366 141.283 114.936 140.11C115.791 138.349 116.009 136.369 116.137 134.413C114.485 134.208 111.755 134.584 110.392 135.533Z" fill="black"/>
</g>
<path d="M114.935 140.11C114.935 140.11 114.935 140.172 114.855 140.286C114.763 140.45 114.661 140.609 114.551 140.761C114.133 141.303 113.641 141.782 113.088 142.185C112.687 142.45 112.228 142.613 111.749 142.66C111.184 142.712 110.62 142.541 110.178 142.185C109.704 141.792 109.371 141.255 109.228 140.656C109.087 140.026 109.04 139.378 109.09 138.733C109.096 138.085 109.213 137.442 109.437 136.834C109.675 136.267 110.063 135.775 110.557 135.41C111.387 134.814 112.358 134.448 113.373 134.346C114.044 134.265 114.72 134.237 115.396 134.261C115.644 134.251 115.892 134.266 116.137 134.308C115.891 134.343 115.644 134.359 115.396 134.356C114.727 134.369 114.059 134.423 113.397 134.517C112.421 134.642 111.492 135.011 110.695 135.59C110.238 135.932 109.882 136.392 109.665 136.92C109.452 137.501 109.341 138.114 109.337 138.733C109.288 139.353 109.33 139.977 109.461 140.585C109.59 141.142 109.897 141.642 110.334 142.01C110.733 142.338 111.244 142.496 111.759 142.451C112.207 142.412 112.639 142.264 113.017 142.019C113.564 141.641 114.061 141.196 114.498 140.694C114.783 140.324 114.916 140.096 114.935 140.11Z" fill="#263238"/>
<path d="M93.8341 207.113C89.7957 206.354 85.6461 206.413 81.6312 207.288C79.58 207.763 77.5003 208.414 75.8147 209.662C74.1291 210.911 72.7521 212.25 72.9135 214.358L103.82 214.392C103.82 210.655 97.8368 207.806 93.8341 207.113Z" fill="#263238"/>
<path d="M127.96 206.975C131.998 206.217 136.148 206.279 140.162 207.155C142.218 207.63 144.293 208.28 145.979 209.553C147.665 210.825 148.923 212.274 148.761 214.382L117.974 214.282C117.974 210.526 123.957 207.668 127.96 206.975Z" fill="#263238"/>
<path d="M82.3628 74.0203C82.3628 74.0203 81.9972 73.8683 81.3325 73.6072C80.3916 73.2462 79.4163 72.9821 78.4218 72.819C76.9507 72.5715 75.4503 72.5506 73.9728 72.7573C72.16 72.9885 70.4111 73.5773 68.8274 74.4893C67.2438 75.4013 65.8569 76.6186 64.747 78.0705C63.8278 79.2471 63.0929 80.5568 62.5676 81.9545C62.2088 82.8967 61.9494 83.8738 61.7936 84.8699C61.6844 85.5727 61.6559 85.9715 61.6322 85.9668C61.6197 85.8706 61.6197 85.7733 61.6322 85.6771C61.6396 85.4023 61.6618 85.1281 61.6987 84.8557C61.8196 83.8446 62.0554 82.8505 62.4014 81.8928C62.9119 80.4678 63.6425 79.1316 64.5666 77.9328C65.6831 76.446 67.0893 75.2006 68.7001 74.272C70.311 73.3433 72.0933 72.7505 73.9395 72.5294C75.4415 72.3329 76.9649 72.3713 78.4551 72.6433C79.4554 72.825 80.4319 73.1197 81.3657 73.5217C81.6208 73.6261 81.8697 73.745 82.1112 73.8778C82.2002 73.9157 82.2846 73.9635 82.3628 74.0203Z" fill="#263238"/>
<g opacity="0.3">
<path d="M111.754 88.9676C111.994 87.2536 111.835 85.5072 111.289 83.8649C110.743 82.2226 109.824 80.7289 108.605 79.5004C107.385 78.272 105.899 77.3421 104.26 76.7836C102.622 76.225 100.877 76.0528 99.1614 76.2804C99.1614 72.9377 99.1535 69.5981 99.1377 66.2617C99.1377 66.2617 101.711 66.7793 101.759 74.006C103.662 73.9206 105.551 74.3632 107.218 75.285C108.885 76.2069 110.264 77.5719 111.203 79.2291C114.569 85.0409 111.754 88.9676 111.754 88.9676Z" fill="black"/>
</g>
<path d="M103.112 103.397C103.101 103.261 103.101 103.125 103.112 102.989C103.112 102.846 103.136 102.685 103.155 102.514C103.184 102.292 103.195 102.068 103.188 101.845C103.224 100.415 103.032 98.9881 102.619 97.6187C102.484 97.1641 102.326 96.7171 102.144 96.2797C101.963 95.8048 101.731 95.368 101.498 94.8884C101.238 94.399 100.953 93.9235 100.643 93.464C100.482 93.2313 100.325 92.9892 100.168 92.7612L99.6082 92.0775C98.7954 91.1313 97.8614 90.2963 96.8305 89.5942C95.7192 88.8501 94.5051 88.2726 93.2266 87.8801C91.936 87.5256 90.5997 87.3656 89.2618 87.4053C88.0146 87.4444 86.7783 87.6521 85.5867 88.0225L84.7463 88.2979C84.4757 88.3976 84.2145 88.5211 83.9534 88.6256C83.4263 88.8297 82.9562 89.1004 82.4814 89.3568C82.0066 89.6132 81.5887 89.8981 81.1946 90.1925C80.8005 90.4869 80.4112 90.7575 80.0883 91.0756C79.0098 92.015 78.0867 93.1192 77.3534 94.3471C77.2297 94.5333 77.1201 94.7286 77.0257 94.9312C76.9403 95.1021 76.8643 95.2446 76.7978 95.3728C76.7447 95.4985 76.6778 95.6179 76.5984 95.7289C76.6427 95.5991 76.6951 95.4723 76.7551 95.349L76.9592 94.8742C77.0461 94.666 77.1509 94.4658 77.2726 94.2759C77.9783 93.0146 78.8917 91.8812 79.9744 90.9237C80.3271 90.6009 80.6964 90.2966 81.0807 90.012C81.4795 89.7129 81.9259 89.447 82.3769 89.1574C82.828 88.8677 83.3266 88.6113 83.8679 88.4024C84.129 88.2932 84.3949 88.1697 84.6703 88.0653L85.5203 87.7804C86.7297 87.3996 87.9851 87.184 89.2523 87.1394C92.0148 87.0105 94.7414 87.8058 97.0014 89.3995C98.0487 90.1155 98.9956 90.9683 99.8171 91.9351L100.382 92.6283C100.563 92.8657 100.719 93.1031 100.857 93.3453C101.199 93.8201 101.436 94.2949 101.716 94.7697C101.997 95.2446 102.191 95.7194 102.353 96.1942C102.535 96.638 102.694 97.0914 102.827 97.5522C103.223 98.9403 103.383 100.385 103.302 101.826C103.305 102.052 103.286 102.277 103.245 102.5C103.245 102.685 103.198 102.851 103.179 102.975C103.169 103.117 103.147 103.259 103.112 103.397Z" fill="#263238"/>
<path d="M58.6883 117.95C58.6012 117.945 58.5151 117.929 58.4319 117.903C58.2705 117.86 58.0188 117.817 57.7149 117.713C56.8437 117.434 56.0097 117.05 55.2316 116.569C54.0679 115.862 53.0311 114.964 52.1643 113.914C51.0827 112.637 50.2919 111.139 49.8467 109.526C49.4015 107.912 49.3125 106.221 49.586 104.57C49.7914 103.223 50.2198 101.92 50.8538 100.714C51.2773 99.9046 51.797 99.1489 52.4017 98.4637C52.6106 98.2121 52.8053 98.0506 52.9192 97.9272C52.9776 97.8632 53.0429 97.8058 53.1139 97.7562C52.9153 98.0235 52.7029 98.2802 52.4777 98.5254C51.9041 99.2239 51.4119 99.9853 51.0105 100.795C50.4099 101.989 50.0044 103.271 49.8092 104.594C49.5539 106.213 49.6477 107.869 50.0842 109.449C50.5206 111.03 51.2897 112.499 52.34 113.758C53.1843 114.797 54.1913 115.694 55.3218 116.412C56.0824 116.902 56.8964 117.303 57.7482 117.608C58.3512 117.836 58.693 117.927 58.6883 117.95Z" fill="#263238"/>
<path d="M41.2574 100.496C41.7135 100.486 42.1689 100.539 42.6106 100.653C43.6918 100.874 44.7402 101.233 45.7302 101.721C46.721 102.207 47.6463 102.817 48.4841 103.535C48.8438 103.814 49.1633 104.142 49.4338 104.508C49.4053 104.537 49.0302 104.181 48.3702 103.668C46.6565 102.326 44.682 101.356 42.5726 100.819C41.7654 100.605 41.2526 100.525 41.2574 100.496Z" fill="#263238"/>
<path d="M110.558 93.3407C110.558 93.3834 110.035 93.222 109.185 93.07C108.088 92.8814 106.968 92.8511 105.862 92.9798C104.753 93.12 103.672 93.429 102.657 93.8962C101.878 94.2571 101.427 94.5562 101.403 94.5182C101.379 94.4803 101.498 94.4185 101.698 94.2761C101.977 94.0756 102.27 93.8962 102.576 93.7395C103.594 93.2151 104.697 92.8743 105.833 92.7329C106.968 92.5966 108.117 92.6528 109.233 92.8991C109.568 92.9736 109.898 93.0687 110.221 93.184C110.341 93.2173 110.455 93.2702 110.558 93.3407Z" fill="#263238"/>
<g opacity="0.3">
<path d="M106.787 90.8479C104.955 90.528 103.068 90.8447 101.441 91.7453C100.074 89.4852 98.0974 87.6562 95.7383 86.4678C93.3793 85.2795 90.7332 84.78 88.1033 85.0266C82.8802 85.5964 78.7588 89.6276 77.1492 94.637C79.8272 89.6419 84.4614 87.6666 89.3473 87.5147C94.2332 87.3627 99.2093 90.0692 101.379 94.4518C102.905 93.5955 104.595 93.0709 106.338 92.9122C108.081 92.7535 109.837 92.9642 111.493 93.5306C110.277 92.1251 108.616 91.1783 106.787 90.8479Z" fill="black"/>
</g>
<g opacity="0.3">
<path d="M54.5337 96.6976C53.1101 96.7989 51.7308 97.2365 50.5092 97.9744C49.2876 98.7123 48.2585 99.7295 47.5064 100.943C45.5667 100.066 43.3776 99.9107 41.3337 100.506C44.5751 100.834 47.5699 102.384 49.7096 104.841C49.6512 103.164 50.0746 101.506 50.9296 100.063C51.7846 98.6198 53.0354 97.4518 54.5337 96.6976Z" fill="black"/>
</g>
<g opacity="0.3">
<path d="M168.771 117.437C166.026 112.813 160.053 109.342 154.678 109.532H154.545C158.818 111.146 163.628 114.522 166.178 119.74C168.242 124.043 168.945 128.874 168.191 133.586C170.931 128.947 171.515 122.067 168.771 117.437Z" fill="black"/>
</g>
<path d="M170.309 186.543C170.365 186.157 170.4 185.769 170.414 185.38C170.512 184.243 170.45 183.099 170.228 181.98C170.055 181.199 169.732 180.459 169.279 179.801C169.956 178.305 170.394 176.712 170.575 175.081C170.688 174.473 170.62 173.846 170.38 173.277C169.882 172.327 168.619 171.876 167.451 171.629C165.145 171.14 162.773 171.035 160.433 171.32C160.146 171.332 159.869 171.422 159.63 171.581C159.517 171.709 159.434 171.861 159.387 172.026C159.341 172.19 159.331 172.363 159.36 172.531C159.495 174.232 159.525 175.94 159.45 177.645C158.248 178.091 157.157 178.794 156.254 179.706L156.221 179.739C155.112 180.726 153.938 181.638 152.708 182.469C152.01 182.944 151.573 183.419 151.525 184.003C151.506 184.259 151.559 184.515 151.677 184.743C151.795 184.971 151.975 185.162 152.195 185.294C153.643 186.244 156.896 183.87 156.896 183.87C156.544 184.943 156.066 185.972 155.471 186.932C154.013 189.117 155.158 187.288 152.931 190.617C152.703 190.959 151.981 191.842 152.271 192.768C152.56 193.694 153.263 193.85 154.218 193.485C155.832 192.863 157.945 190.636 159.346 189.487C158.956 189.962 157.066 192.687 156.753 193.186C156.311 193.884 155.87 194.458 156.074 195.042C156.278 195.626 157.119 195.83 157.736 195.783C158.235 195.69 158.69 195.437 159.032 195.061C160.227 193.878 161.349 192.623 162.394 191.305C161.967 192.284 160.969 194.188 160.67 195.213C160.571 195.593 160.29 196.414 160.461 196.771C160.756 197.364 161.615 197.407 162.232 197.16C163.035 196.842 164.132 195.569 164.607 194.848C165.052 194.108 165.423 193.325 165.713 192.511C165.647 192.826 165.555 193.134 165.438 193.433C165.182 193.971 164.996 194.539 164.882 195.123C164.882 195.493 164.459 196.88 165.048 197.255C165.836 197.763 166.511 196.923 166.72 196.666C168.096 194.938 168.889 192.573 169.445 190.968C169.88 189.526 170.169 188.043 170.309 186.543Z" fill="white"/>
<path d="M170.309 186.543C170.309 186.543 170.309 186.652 170.28 186.856L170.162 187.773C170.018 188.951 169.754 190.11 169.374 191.234C169.127 191.966 168.851 192.778 168.486 193.642C168.103 194.591 167.617 195.495 167.037 196.339C166.752 196.852 166.302 197.255 165.76 197.483C165.602 197.522 165.437 197.522 165.28 197.481C165.122 197.44 164.977 197.361 164.858 197.25C164.661 196.976 164.576 196.636 164.621 196.301C164.641 195.982 164.681 195.665 164.739 195.351C164.746 195.275 164.746 195.199 164.739 195.123C164.745 195.037 164.757 194.951 164.777 194.867C164.815 194.705 164.863 194.549 164.915 194.392C165.019 194.079 165.143 193.765 165.276 193.442C165.405 193.136 165.502 192.818 165.565 192.493L165.736 192.54C165.402 193.54 164.922 194.486 164.312 195.346C163.974 195.789 163.599 196.202 163.191 196.581C162.981 196.778 162.752 196.955 162.508 197.108C162.248 197.262 161.958 197.358 161.658 197.388C161.348 197.426 161.033 197.375 160.751 197.241C160.605 197.165 160.481 197.054 160.39 196.918C160.298 196.777 160.253 196.611 160.262 196.443C160.282 196.137 160.338 195.834 160.428 195.541C160.509 195.251 160.589 194.952 160.699 194.667C161.135 193.518 161.734 192.417 162.251 191.263L162.436 191.377C161.7 192.265 160.945 193.181 160.129 194.074C159.716 194.533 159.275 194.966 158.809 195.37C158.563 195.586 158.276 195.748 157.964 195.845C157.639 195.918 157.301 195.918 156.976 195.845C156.636 195.789 156.324 195.622 156.088 195.37C155.976 195.23 155.903 195.063 155.874 194.886C155.846 194.708 155.864 194.527 155.927 194.359C156.046 194.045 156.206 193.748 156.401 193.475C156.572 193.2 156.758 192.934 156.947 192.668L159.227 189.411L159.398 189.582C158.12 190.636 156.929 191.88 155.499 192.906C155.141 193.166 154.756 193.387 154.35 193.566C153.933 193.779 153.459 193.852 152.997 193.775C152.755 193.711 152.543 193.565 152.399 193.362C152.26 193.169 152.16 192.951 152.104 192.721C152.012 192.254 152.086 191.77 152.313 191.353C153.837 188.746 155.979 186.605 156.762 183.846L156.947 183.984C156.326 184.42 155.666 184.8 154.977 185.119C154.297 185.471 153.54 185.647 152.774 185.631C152.377 185.584 152.011 185.391 151.748 185.09C151.617 184.942 151.518 184.769 151.456 184.581C151.394 184.393 151.371 184.195 151.387 183.998C151.438 183.611 151.617 183.251 151.895 182.977C152.155 182.719 152.441 182.49 152.75 182.293C153.9 181.521 154.998 180.672 156.036 179.753C156.975 178.777 158.122 178.025 159.393 177.555L159.322 177.65C159.4 176.385 159.4 175.116 159.322 173.851C159.322 173.543 159.288 173.234 159.269 172.93C159.23 172.615 159.23 172.296 159.269 171.98C159.302 171.812 159.383 171.657 159.502 171.534C159.622 171.417 159.771 171.333 159.934 171.292C160.227 171.221 160.526 171.175 160.827 171.154C163.031 170.935 165.255 171.057 167.422 171.515C168.414 171.738 169.426 172.042 170.11 172.759C170.434 173.115 170.629 173.57 170.665 174.051C170.691 174.496 170.669 174.944 170.599 175.385C170.39 176.913 169.958 178.402 169.317 179.805V179.744C169.634 180.178 169.884 180.659 170.057 181.168C170.217 181.612 170.333 182.07 170.404 182.536C170.5 183.261 170.524 183.994 170.475 184.725C170.466 185.171 170.434 185.616 170.38 186.059C170.347 186.358 170.323 186.534 170.323 186.534C170.323 186.534 170.323 186.382 170.347 186.059C170.371 185.736 170.413 185.313 170.413 184.725C170.451 183.997 170.417 183.267 170.314 182.545C170.241 182.087 170.123 181.637 169.962 181.201C169.788 180.693 169.54 180.213 169.226 179.777C169.22 179.769 169.217 179.759 169.217 179.748C169.217 179.738 169.22 179.728 169.226 179.72C169.849 178.323 170.266 176.844 170.466 175.328C170.534 174.899 170.555 174.465 170.527 174.032C170.491 173.583 170.306 173.16 170 172.83C169.364 172.166 168.381 171.881 167.398 171.653C165.249 171.205 163.044 171.091 160.86 171.316C160.572 171.338 160.286 171.382 160.005 171.449C159.876 171.477 159.757 171.543 159.665 171.638C159.573 171.734 159.511 171.854 159.488 171.985C159.452 172.277 159.452 172.572 159.488 172.864C159.488 173.172 159.521 173.481 159.54 173.813C159.621 175.088 159.621 176.366 159.54 177.64C159.538 177.661 159.53 177.681 159.518 177.698C159.505 177.714 159.488 177.727 159.469 177.735C158.228 178.199 157.107 178.937 156.193 179.896C155.143 180.825 154.033 181.683 152.869 182.464C152.574 182.651 152.302 182.871 152.057 183.12C151.813 183.352 151.656 183.66 151.611 183.993C151.597 184.159 151.617 184.325 151.669 184.483C151.721 184.64 151.805 184.785 151.914 184.91C152.136 185.172 152.448 185.341 152.788 185.385C153.508 185.4 154.221 185.237 154.863 184.91C155.538 184.597 156.183 184.224 156.791 183.794C156.804 183.785 156.819 183.779 156.834 183.776C156.849 183.773 156.865 183.773 156.881 183.776C156.896 183.779 156.911 183.785 156.924 183.794C156.937 183.803 156.948 183.814 156.957 183.827C156.965 183.844 156.969 183.863 156.969 183.882C156.969 183.901 156.965 183.919 156.957 183.936C156.725 184.623 156.45 185.294 156.131 185.945C155.797 186.599 155.413 187.226 154.982 187.82C154.778 188.124 154.545 188.419 154.336 188.713L153.704 189.62L153.087 190.546C152.867 190.847 152.67 191.164 152.498 191.495C152.295 191.861 152.227 192.286 152.309 192.697C152.338 192.892 152.42 193.076 152.545 193.229C152.67 193.382 152.835 193.499 153.021 193.566C153.43 193.629 153.849 193.561 154.217 193.371C154.607 193.198 154.978 192.985 155.324 192.735C156.724 191.747 157.907 190.513 159.208 189.44C159.218 189.428 159.231 189.419 159.245 189.413C159.26 189.407 159.275 189.404 159.291 189.404C159.306 189.404 159.322 189.407 159.336 189.413C159.35 189.419 159.363 189.428 159.374 189.44C159.39 189.461 159.398 189.487 159.398 189.513C159.398 189.54 159.39 189.565 159.374 189.587L157.104 192.82C156.919 193.086 156.734 193.352 156.563 193.627C156.384 193.882 156.237 194.158 156.126 194.449C156.076 194.581 156.061 194.724 156.082 194.863C156.103 195.003 156.159 195.135 156.245 195.247C156.449 195.456 156.715 195.596 157.004 195.645C157.292 195.71 157.59 195.71 157.878 195.645C158.159 195.557 158.418 195.41 158.638 195.213C159.095 194.816 159.528 194.391 159.934 193.941C160.751 193.053 161.506 192.141 162.246 191.253C162.263 191.232 162.287 191.217 162.313 191.212C162.34 191.207 162.368 191.212 162.391 191.226C162.414 191.24 162.431 191.263 162.439 191.289C162.446 191.315 162.444 191.343 162.432 191.367C161.905 192.535 161.306 193.632 160.874 194.757C160.771 195.038 160.683 195.323 160.608 195.612C160.519 195.889 160.464 196.176 160.447 196.467C160.442 196.596 160.475 196.723 160.543 196.833C160.611 196.943 160.709 197.031 160.827 197.084C161.072 197.201 161.346 197.244 161.615 197.208C162.161 197.126 162.663 196.862 163.039 196.457C163.441 196.09 163.809 195.688 164.141 195.256C164.747 194.412 165.227 193.485 165.565 192.502C165.575 192.483 165.59 192.468 165.61 192.459C165.629 192.451 165.65 192.449 165.671 192.455C165.691 192.46 165.709 192.473 165.721 192.49C165.733 192.508 165.738 192.529 165.736 192.55C165.67 192.89 165.568 193.223 165.433 193.542C165.3 193.846 165.176 194.154 165.072 194.463C165.018 194.619 164.974 194.777 164.939 194.938C164.919 195.011 164.908 195.086 164.905 195.161C164.9 195.244 164.889 195.327 164.872 195.408C164.825 195.726 164.768 196.035 164.754 196.358C164.716 196.642 164.784 196.931 164.943 197.17C165.043 197.261 165.164 197.326 165.294 197.36C165.425 197.394 165.562 197.395 165.694 197.364C166.2 197.146 166.621 196.768 166.89 196.286C167.47 195.454 167.957 194.561 168.343 193.623C168.714 192.763 168.998 191.956 169.25 191.249C169.637 190.132 169.917 188.981 170.086 187.811C170.147 187.417 170.195 187.118 170.228 186.899C170.261 186.681 170.309 186.543 170.309 186.543Z" fill="#263238"/>
<path d="M169.312 179.839C169.283 179.872 168.837 179.468 168.02 178.927C166.968 178.233 165.791 177.75 164.554 177.503C163.308 177.293 162.035 177.293 160.789 177.503C159.839 177.659 159.241 177.816 159.231 177.773C159.357 177.706 159.491 177.655 159.63 177.621C160.001 177.504 160.379 177.408 160.76 177.332C162.026 177.071 163.329 177.053 164.602 177.28C166.257 177.613 167.787 178.402 169.017 179.559C169.217 179.715 169.321 179.825 169.312 179.839Z" fill="#263238"/>
</svg>
